<?xml version="1.0" encoding="utf-8"?>
<!-- Generator: Adobe Illustrator 21.1.0, SVG Export Plug-In . SVG Version: 6.00 Build 0)  -->
<svg version="1.1" id="レイヤー_1" xmlns="http://www.w3.org/2000/svg" xmlns:xlink="http://www.w3.org/1999/xlink" x="0px"
	 y="0px" viewBox="0 0 840 594" style="enable-background:new 0 0 840 594;" xml:space="preserve">
<style type="text/css">
	.st0{fill:#FFFFFF;}
	.st1{fill:#E60027;}
</style>
<g>
	<g>
		<g>
			<g>
				<g>
					<g>
						<g>
							<path class="st0" d="M579,196.5c0,0,0,34,0,33.7h45.1c0,0.1,0-33.7,0-33.7c0,0,22.1,0,22.3,0c0,0,0.1,84.2,0,84.3
								c0,0-22.3,0-22.3,0c0,0,0-37,0-37.1c0,0.1-45.1,0-45.1,0c0,0.1,0,37.1,0,37.1h-22.3c0,0,0.1-84.3,0-84.3H579z"/>
							<path class="st0" d="M367.1,196.5c0,0.2,0,14.3,0,14.3h-34.1v70h-22.3v-70h-34.1c0,0,0-14.3,0-14.3
								C276.5,196.5,367.1,196.5,367.1,196.5z"/>
							<path class="st0" d="M453.9,280.8c0.1,0-25,0-24.9,0c0,0-7.3-18.1-7.3-18.1h-41.9c0,0-7.2,18.2-7.3,18.1c0,0-24.9,0-24.9,0
								l39.4-84.3c0,0.1,27.4,0,27.4,0L453.9,280.8z M400.8,210.9l-15.5,38.3h31.1L400.8,210.9"/>
							<rect x="664.1" y="196.5" class="st0" width="22.3" height="84.3"/>
							<path class="st0" d="M161,196.5c0,0,0,34,0,33.7h45.1c0,0.1,0-33.7,0-33.7c0,0,22.1,0,22.3,0c0,0,0.1,84.2,0,84.3
								c0,0-22.3,0-22.3,0c0,0,0-37,0-37.1c0,0.1-45.1,0-45.1,0c0,0.1,0,37.1,0,37.1h-22.3c0,0,0.1-84.3,0-84.3H161z"/>
							<rect x="246.1" y="196.5" class="st0" width="22.3" height="84.3"/>
							<path class="st0" d="M453.1,257.5c-2-5.7-3-11.6-3-18c0-8.8,1.6-17.4,5.8-24.5c4.4-7.3,11.1-13,19.2-16.1
								c7.7-2.9,16-4.5,24.8-4.5c10,0,19.5,2.2,28.2,5.9c8,3.5,14.1,10.7,15.9,19.5c0.4,1.7,0.6,3.5,0.8,5.3h-23.4
								c-0.1-2.2-0.4-4.5-1.2-6.5c-1.8-4.7-5.7-8.3-10.5-9.8c-3.1-0.9-6.4-1.5-9.8-1.5c-3.9,0-7.6,0.7-11.1,1.9
								c-5.7,2-10.2,6.6-12.2,12.4c-1.9,5.5-3.1,11.5-3.1,17.7c0,5.2,0.8,10.1,2.1,14.8c1.7,6.1,6.3,11.1,12.2,13.3
								c3.7,1.4,7.8,2.2,12,2.2c3.6,0,7.1-0.5,10.3-1.6c4.4-1.4,7.9-4.6,9.8-8.8c1.2-2.8,1.8-5.8,1.8-9h23.5c-0.1,2.7-0.5,5.4-1.1,8
								c-2,8.3-7.9,15.3-15.6,18.6c-8.8,3.7-18.5,5.9-28.7,5.9c-7.9,0-15.5-1.2-22.7-3.5C466.2,276,456.8,268.1,453.1,257.5z"/>
						</g>
					</g>
				</g>
			</g>
		</g>
	</g>
	<g>
		<g>
			<path class="st0" d="M118.6,304.4l-19.9,1.8v2.9l0.6,0.1c8,0.9,8,0.9,8,6.7v41.7h12v-53.3L118.6,304.4z"/>
			<path class="st0" d="M160.8,320.2c-7.4,0-11.9,5-13.9,8.1c0-2.7,0-8.2,0-8.2l-0.8,0.1l-16.1,2.5v2.8l0.7,0c5.1,0.1,6.2,1.2,6.2,6
				v26.1H147v-19.2c0-5.1,4.8-11.7,9.9-11.7c4.8,0,5.1,4,5.1,10.6v20.3H172v-26.1C172,324.2,168,320.2,160.8,320.2z"/>
			<path class="st0" d="M200.2,334.7c-4-1.9-7.4-3.6-7.4-6.4c0-3.1,3.7-3.4,5.3-3.4c4.1,0,7.8,2.3,9.4,3.2l1.6,1l0-1.3v-6.3
				l-1.2-0.3c-1.8-0.4-5.2-1.2-9.1-1.2c-9.5,0-15.1,4.1-15.1,10.9c0,6.1,5.9,9,11.1,11.5c4,2,7.8,3.8,7.8,6.8c0,2.8-2.4,4.4-6.7,4.4
				c-4.7,0-8.7-2.4-11-3.8l-1.1-0.7v7.8l0.7,0.2c2,0.5,5.8,1.3,11,1.3c10.2,0,16.3-4.2,16.3-11.2
				C211.7,340.4,205.6,337.4,200.2,334.7z"/>
			<path class="st0" d="M244.4,320.2c-3.7,0-7.4,1.8-10.6,5.2c0-1.8,0-5.3,0-5.3l-0.8,0.1l-16.1,2.5v2.8l0.7,0c5,0.1,6,1.2,6,6v41.5
				h10.1c0,0,0-15.8,0-18.9c1.9,2.2,4.8,4.3,10.3,4.3c10.5,0,16.1-6.8,16.1-19.7C260.1,326.9,254.4,320.2,244.4,320.2z M241.6,325.7
				c6.9,0,7.7,7.5,7.7,13.1c0,9.6-2.5,14.2-7.6,14.2c-6.5,0-7.9-6.1-7.9-11.2v-3.1C233.7,334.7,234.5,325.7,241.6,325.7z"/>
			<g>
				<path class="st0" d="M267.2,322.7v2.8l0.7,0c5,0.1,6,1.2,6,6v26.1h10.1V320l-0.8,0.1L267.2,322.7z"/>
				<path class="st0" d="M278.9,315.6c3.5,0,6.3-2.5,6.3-5.5c0-3-2.8-5.4-6.2-5.4c-3.4,0-6.1,2.4-6.1,5.4
					C272.9,313.1,275.6,315.6,278.9,315.6z"/>
			</g>
			<path class="st0" d="M326,328.5v-7.8l-0.6-0.1c-1.6-0.3-3.3-0.4-4.8-0.4c-5.7,0-8.7,4.2-10.3,7.4c0-3,0-7.6,0-7.6l-0.8,0.1
				l-16.1,2.5v2.8l0.7,0c5.1,0.1,6.1,1.2,6.1,6v26.1h10.1v-18.8c0-3.2,1-10.6,10.5-10.6c1.1,0,2.3,0.3,3.5,0.7l1.6,0.5L326,328.5z"
				/>
			<path class="st0" d="M365.8,335.3c0-10.1-5.6-15.2-16.7-15.2c-12.5,0-18.9,6-18.9,17.9c0,12.8,8.2,20.4,21.9,20.4
				c6,0,10.6-1.5,12.3-2.1l0.6-0.2v-4.9l-1,0.3c-1.7,0.6-4.6,1.2-7.9,1.2c-10.7,0-14.7-8.9-15-16.9c1.4,0,24.6,0,24.6,0V335.3z
				 M348.8,324.2c5.4,0,6.8,3.9,6.9,7.4c-1.3,0-13.2,0-14.5,0C341.5,329,343.2,324.2,348.8,324.2z"/>
		</g>
		<g>
			<path class="st0" d="M457.6,320.2c-7.4,0-11.7,4.6-13.8,8c0-4.1,0-25.1,0-25.1l-0.8,0.1l-16,2v2.8l0.7,0c5,0.2,6,1.3,6,6.2v43.4
				h10.1v-18.7c0-6.8,5.1-12.2,9.5-12.2c5.6,0,5.6,4.2,5.6,7.9v23h10.1v-24.1C468.9,329.5,468.9,320.2,457.6,320.2z"/>
			<path class="st0" d="M514.1,335.3c0-10.1-5.6-15.2-16.7-15.2c-12.5,0-18.8,6-18.8,17.9c0,12.8,8.2,20.4,21.9,20.4
				c6,0,10.6-1.5,12.3-2.1l0.6-0.2v-4.9l-1,0.3c-1.7,0.6-4.6,1.2-7.9,1.2c-10.7,0-14.8-8.9-15-16.9c1.4,0,24.6,0,24.6,0V335.3z
				 M497.1,324.2c5.4,0,6.8,3.9,6.9,7.4c-1.3,0-13.2,0-14.5,0C489.8,329,491.4,324.2,497.1,324.2z"/>
			<path class="st0" d="M401.1,309.6c0,0,0,10.3,0,11.4c-1.1,0-6.7,0-6.7,0v4.5c0,0,5.6,0,6.7,0c0,1.3,0,22.5,0,22.5
				c0,9.7,6.3,10.5,13.8,10.5c1.9,0,3.8-0.3,5.9-0.6l0.6-0.1v-4.5l-0.9,0.2c-0.9,0.2-1.9,0.3-3,0.3c-6,0-6.4-1.8-6.4-6.9
				c0,0,0-20,0-21.3c1.3,0,11.3,0,11.3,0V321c0,0-10.1,0-11.3,0c0-1.3,0-11.4,0-11.4H401.1z"/>
		</g>
		<g>
			<path class="st0" d="M599.2,305.2h-10.1c0,0,0,36,0,39.8c-2.1-3.2-26.3-39.8-26.3-39.8h-23.2v3l2,0.3c6.1,1,6.6,1.1,6.6,7.1v42
				H559c0,0,0-37.9,0-41.7c2.1,3.2,27.6,41.7,27.6,41.7h13.3v-52.4H599.2z"/>
			<path class="st0" d="M644.9,335.4c0-10.1-5.6-15.2-16.7-15.2c-12.5,0-18.8,6-18.8,17.9c0,12.8,8.2,20.4,21.9,20.4
				c6,0,10.6-1.5,12.3-2.1l0.6-0.2v-4.9l-1,0.3c-1.7,0.6-4.6,1.2-7.9,1.2c-10.8,0-14.8-8.9-15-16.9c1.4,0,24.6,0,24.6,0V335.4z
				 M627.9,324.2c5.4,0,6.8,3.9,6.9,7.4c-1.3,0-13.2,0-14.5,0C620.6,329,622.2,324.2,627.9,324.2z"/>
			<path class="st0" d="M700.4,309.6c0,0,0,10.3,0,11.4c-1.1,0-6.7,0-6.7,0v4.5c0,0,5.6,0,6.7,0c0,1.3,0,22.5,0,22.5
				c0,9.7,6.3,10.5,13.8,10.5c1.9,0,3.8-0.3,5.9-0.6l0.6-0.1v-4.5l-0.9,0.2c-0.9,0.2-1.9,0.3-3,0.3c-6.1,0-6.4-1.8-6.4-6.9
				c0,0,0-20,0-21.3c1.3,0,11.3,0,11.3,0V321c0,0-10.1,0-11.3,0c0-1.3,0-11.4,0-11.4H700.4z"/>
			<g>
				<path class="st0" d="M680.1,333l10.3-12h-10.6l-9.8,11.3l-8.7-11.3h-15.4v2.9l0.7,0c5.2,0.4,6.4,1.3,9.7,5.6l6.3,8.4l-10.3,11.9
					h10.6l4.6-5.3l9.9,13.2h11.9L670.5,333H680.1z"/>
				<polygon class="st1" points="700.2,309.6 689.6,309.6 702.5,294.7 713.1,294.7 				"/>
			</g>
		</g>
	</g>
</g>
</svg>
