<?xml version="1.0" encoding="UTF-8" standalone="no"?>
<svg
   xmlns:dc="http://purl.org/dc/elements/1.1/"
   xmlns:cc="http://creativecommons.org/ns#"
   xmlns:rdf="http://www.w3.org/1999/02/22-rdf-syntax-ns#"
   xmlns:svg="http://www.w3.org/2000/svg"
   xmlns="http://www.w3.org/2000/svg"
   xmlns:xlink="http://www.w3.org/1999/xlink"
   xmlns:sodipodi="http://sodipodi.sourceforge.net/DTD/sodipodi-0.dtd"
   xmlns:inkscape="http://www.inkscape.org/namespaces/inkscape"
   height="203.89442"
   width="148.38"
   xml:space="preserve"
   viewBox="0 0 148.38001 203.89442"
   y="0px"
   x="0px"
   id="Layer_1"
   version="1.1"
   inkscape:version="0.91+devel+osxmenu r12911"
   sodipodi:docname="logo-footer.svg"><sodipodi:namedview
     pagecolor="#ffffff"
     bordercolor="#666666"
     borderopacity="1"
     objecttolerance="10"
     gridtolerance="10"
     guidetolerance="10"
     inkscape:pageopacity="0"
     inkscape:pageshadow="2"
     inkscape:window-width="1239"
     inkscape:window-height="750"
     id="namedview53827"
     showgrid="false"
     inkscape:zoom="2.3149235"
     inkscape:cx="56.910814"
     inkscape:cy="110.58681"
     inkscape:window-x="0"
     inkscape:window-y="23"
     inkscape:window-maximized="0"
     inkscape:current-layer="Layer_1" /><metadata
     id="metadata3698"><rdf:RDF><cc:Work
         rdf:about=""><dc:format>image/svg+xml</dc:format><dc:type
           rdf:resource="http://purl.org/dc/dcmitype/StillImage" /><dc:title /></cc:Work></rdf:RDF></metadata><defs
     id="defs3696"><defs
       id="defs3566"><path
         id="SVGID_1_"
         d="m 204.5,655.5 c 0,184.6 149.7,334.3 334.3,334.3 184.6,0 334.3,-149.7 334.3,-334.3 0,-184.6 -149.7,-334.3 -334.3,-334.3 -184.7,0 -334.3,149.7 -334.3,334.3" /></defs><clipPath
       id="SVGID_2_"><use
         xlink:href="#SVGID_1_"
         style="overflow:visible"
         id="use3570"
         x="0"
         y="0"
         width="100%"
         height="100%" /></clipPath></defs><style
     id="style3546"
     type="text/css">
	.st0{fill:#FFFFFF;}
	.st1{fill:#D81B60;}
	.st2{clip-path:url(#SVGID_2_);fill:#FFFFFF;}
	.st3{fill:none;stroke:#FFFFFF;stroke-width:5;stroke-miterlimit:10;}
</style><path
     inkscape:connector-curvature="0"
     class="st1"
     d="m 79.174483,23.397465 c 1.303413,1.231797 2.119837,2.97923 2.119837,4.912865 0,0.243495 -0.01432,0.472667 -0.04297,0.701838 l 39.34589,22.71663 C 115.49817,33.036994 99.355903,18.899974 79.60418,16.765814 l -0.429697,6.631651 z"
     id="path3554"
     style="fill:#e35359;stroke-width:0.14323223;fill-opacity:1" /><path
     style="fill:#e35359;stroke-width:0.14323223;fill-opacity:1"
     d="M 74.505859 25.117188 C 72.729779 25.117188 71.296875 26.562462 71.296875 28.324219 C 71.296875 30.085975 72.744102 31.533203 74.505859 31.533203 C 76.281938 31.533203 77.712891 30.085975 77.712891 28.324219 C 77.712891 26.548139 76.267615 25.117187 74.505859 25.117188 z M 74.505859 26.277344 C 75.623069 26.277344 76.539062 27.193337 76.539062 28.310547 C 76.539063 29.427757 75.637399 30.34375 74.505859 30.34375 C 73.388649 30.34375 72.470703 29.427757 72.470703 28.310547 C 72.470703 27.193337 73.388649 26.277344 74.505859 26.277344 z "
     id="path3556" /><path
     style="fill:#e35359;stroke-width:0.14323223;fill-opacity:1"
     d="M 74.490234 35.085938 L 26.550781 62.771484 C 26.536461 63.301443 26.521484 63.832671 26.521484 64.376953 C 26.521484 90.817621 47.963629 112.25781 74.404297 112.25781 C 100.84497 112.25781 122.28711 90.817621 122.28711 64.376953 C 122.28711 63.789701 122.27284 63.216808 122.24414 62.658203 L 74.490234 35.085938 z M 56.15625 47.574219 L 92.708984 47.574219 L 92.708984 56.197266 L 56.15625 56.197266 L 56.15625 47.574219 z M 44.726562 61.541016 L 53.349609 61.541016 L 53.349609 70.162109 L 44.726562 70.162109 L 44.726562 61.541016 z M 61.65625 61.541016 L 70.279297 61.541016 L 70.279297 70.162109 L 61.65625 70.162109 L 61.65625 61.541016 z M 78.572266 61.541016 L 87.195312 61.541016 L 87.195312 70.162109 L 78.572266 70.162109 L 78.572266 61.541016 z M 95.488281 61.541016 L 104.11133 61.541016 L 104.11133 70.162109 L 95.488281 70.162109 L 95.488281 61.541016 z M 44.8125 75.490234 L 104.03906 75.490234 L 104.03906 84.113281 L 44.8125 84.113281 L 44.8125 75.490234 z M 44.8125 89.470703 L 104.03906 89.470703 L 104.03906 98.09375 L 44.8125 98.09375 L 44.8125 89.470703 z "
     id="path3558" /><path
     inkscape:connector-curvature="0"
     class="st1"
     d="m 67.787522,28.997845 c -0.02865,-0.229171 -0.02865,-0.44402 -0.02865,-0.673191 0,-1.847696 0.744808,-3.523513 1.947958,-4.740987 l -0.44402,-6.80353 C 49.439474,18.899974 33.23991,33.10861 28.183813,51.886354 L 67.787522,28.997845 Z"
     id="path3560"
     style="fill:#e35359;stroke-width:0.14323223;fill-opacity:1" /><path
     style="fill:#e35359;fill-opacity:1"
     id="path3586"
     d="m 74.16135,120.26541 c -7.57698,0 -14.92479,-1.48961 -21.84291,-4.41155 C 45.6295,113.03219 39.62807,108.97871 34.47171,103.82235 29.31535,98.66599 25.2762,92.66456 22.4402,85.97562 19.51826,79.0575 18.02865,71.69537 18.02865,64.13271 c 0,-7.57699 1.48961,-14.9248 4.41155,-21.84292 C 25.26187,35.60085 29.31535,29.59942 34.47171,24.44306 39.62807,19.2867 45.6295,15.24755 52.31844,12.41155 59.23656,9.48961 66.59869,8 74.16135,8 c 7.56266,0 14.9248,1.48961 21.84292,4.41155 6.68894,2.82168 12.69037,6.87515 17.84673,12.03151 5.15636,5.15636 9.19551,11.15779 12.03151,17.84673 2.93626,6.91812 4.41155,14.26593 4.41155,21.84292 0,7.57698 -1.48961,14.92479 -4.41155,21.84291 -2.82168,6.68894 -6.87515,12.69037 -12.03151,17.84673 -5.15636,5.15636 -11.15779,9.19551 -17.84673,12.03151 -6.9038,2.92194 -14.26593,4.41155 -21.84292,4.41155 m 0,-106.93717 c -6.86082,0 -13.50679,1.34638 -19.78037,3.99618 -6.0444,2.56385 -11.48722,6.21627 -16.14227,10.88564 -4.65504,4.66937 -8.33611,10.09788 -10.88565,16.14228 -2.64979,6.25924 -3.99617,12.91954 -3.99617,19.78037 0,6.86082 1.34638,13.50679 3.99617,19.78036 2.56386,6.0444 6.21628,11.48723 10.88565,16.14228 4.66937,4.65504 10.09787,8.33611 16.14227,10.88564 6.25925,2.6498 12.91955,3.99618 19.78037,3.99618 6.86083,0 13.5068,-1.34638 19.78037,-3.99618 6.0444,-2.56385 11.48723,-6.21627 16.14227,-10.88564 4.66937,-4.66937 8.33612,-10.09788 10.88565,-16.14228 2.6498,-6.25924 3.99618,-12.91954 3.99618,-19.78036 0,-6.86083 -1.34638,-13.5068 -3.99618,-19.78037 -2.56385,-6.0444 -6.21628,-11.48723 -10.88565,-16.14228 C 105.41462,23.54069 99.98612,19.87395 93.94172,17.32442 87.68248,14.67462 81.02218,13.32824 74.16135,13.32824"
     class="st1" /><path
     style="fill:#ffffff"
     id="path3588"
     d="m 29.45858,157.21934 c 0,4.21103 -2.86465,5.39985 -5.80091,5.39985 -2.09119,0 -4.54046,-0.50131 -5.65767,-1.03127 l 0.9883,-3.5808 c 1.2318,0.6159 3.06517,1.14585 4.46885,1.14585 0.88804,0 2.01957,-0.34375 2.01957,-1.69014 0,-1.00262 -0.8021,-1.69014 -2.97923,-2.66412 -2.43495,-1.07424 -4.12509,-2.10551 -4.12509,-5.08474 0,-4.35426 3.58081,-5.2423 5.72929,-5.2423 2.01958,0 3.73836,0.37241 4.84125,0.83075 l -1.05992,3.3946 c -1.11721,-0.52996 -2.37765,-0.84507 -3.35163,-0.84507 -0.94533,0 -2.26307,0.1862 -2.26307,1.64717 0,0.88804 1.10289,1.44665 2.44927,2.10552 2.42063,1.18882 4.74099,2.39197 4.74099,5.6147 z"
     class="st1" /><path
     style="fill:#ffffff"
     id="path3590"
     d="m 45.1998,144.72949 0,3.3946 -4.38291,0 0,14.20864 -3.93888,0 0,-14.20865 -4.38291,0 0,-3.39459 12.7047,0 z"
     class="st1" /><path
     style="fill:#ffffff"
     id="path3592"
     d="m 115.39791,185.89443 -4.32561,0 -1.37503,-3.86727 -6.08737,0 -1.33206,3.86727 -3.96753,0 6.73191,-17.58892 3.62378,0 6.73191,17.58892 z m -6.56004,-6.88947 -2.13416,-6.4168 -2.14848,6.4168 4.28264,0 z"
     class="st1" /><path
     style="fill:#ffffff"
     id="path3594"
     d="m 62.73142,162.33273 -4.32561,0 -1.37503,-3.86727 -6.08737,0 -1.33206,3.86727 -3.96753,0 6.73191,-17.58892 3.62378,0 6.73191,17.58892 z m -6.54571,-6.90379 -2.13416,-6.41681 -2.14848,6.41681 4.28264,0 z"
     class="st1" /><path
     style="fill:#ffffff"
     id="path3596"
     d="m 75.45044,144.72949 0,3.3946 -4.3829,0 0,14.20864 -3.93889,0 0,-14.20865 -4.3829,0 0,-3.39459 12.70469,0 z"
     class="st1" /><path
     style="fill:#ffffff"
     id="path3598"
     d="m 89.42991,158.93813 0,3.3946 -10.39866,0 0,-17.58892 9.98328,0 0,3.39461 -6.13033,0 0,3.6381 5.31391,0 0,3.25137 -5.31391,0 0,3.92456 6.54571,0 z"
     class="st1" /><path
     style="fill:#ffffff"
     id="path3600"
     d="m 116.38621,153.48098 c 0,4.16806 -1.80472,9.32442 -8.4507,9.32442 -6.64597,0 -8.4507,-5.15636 -8.4507,-9.35307 0,-4.08212 1.80473,-9.13821 8.4507,-9.13821 6.64598,0 8.4507,5.07042 8.4507,9.16686 z m -4.1967,-0.0573 c 0,-4.28265 -1.7904,-5.65769 -4.26832,-5.65769 -2.47792,0 -4.26832,1.37504 -4.26832,5.65769 0,4.3829 1.7904,5.88684 4.26832,5.88684 2.47792,0 4.26832,-1.51826 4.26832,-5.88684 z"
     class="st1" /><path
     style="fill:#ffffff"
     id="path3602"
     d="m 124.42154,148.12409 0,3.96754 5.34256,0 0,3.3946 -5.34256,0 0,6.8465 -3.89592,0 0,-17.58892 9.85438,0 0,3.39461 -5.95846,0 z"
     class="st1" /><path
     style="fill:#ffffff"
     id="path3604"
     d="m 30.54714,168.40578 0,3.35163 -4.32561,0 0,14.03676 -3.89592,0 0,-14.03676 -4.32561,0 0,-3.35163 12.54714,0 z"
     class="st1" /><path
     style="fill:#ffffff"
     id="path3606"
     d="m 49.33921,168.40578 0,17.38839 -3.89592,0 0,-7.20458 -6.97541,0 0,7.20458 -3.89591,0 0,-17.38839 3.89591,0 0,6.83217 6.97541,0 0,-6.83217 3.89592,0 z"
     class="st1" /><path
     style="fill:#ffffff"
     id="path3608"
     d="m 64.06348,182.44253 0,3.35164 -10.28407,0 0,-17.38839 9.8687,0 0,3.35163 -6.07305,0 0,3.59513 5.25662,0 0,3.22272 -5.25662,0 0,3.86727 6.48842,0 z"
     class="st1" /><path
     style="fill:#ffffff"
     id="path3610"
     d="m 95.64619,185.79417 -3.92457,0 -0.50131,-12.67605 -3.70971,11.87395 -3.39461,0 -3.73836,-11.87395 -0.38673,12.67605 -3.69539,0 0.90237,-17.38839 5.14203,0 3.59513,11.6591 3.46622,-11.6591 5.32824,0 0.91669,17.38839 z"
     class="st1" /><path
     style="fill:#ffffff"
     id="path3612"
     d="m 130.38,173.90589 c 0,4.39723 -2.92194,6.15899 -6.08737,6.15899 l -2.34901,0 0,5.72929 -3.89591,0 0,-17.38839 4.98448,0 c 4.08212,0 7.34781,1.24612 7.34781,5.50011 z m -3.96753,0.2435 c 0,-1.48962 -1.01695,-2.4063 -3.2657,-2.4063 l -1.21747,0 0,5.09906 1.31774,0 c 2.19145,0.0143 3.16543,-0.64454 3.16543,-2.69276 z"
     class="st1" /><path
     style="fill:#ffffff;stroke:#ffffff;stroke-width:0.71616107;stroke-miterlimit:10"
     id="path3614"
     d="M 53.97993,144.82975"
     class="st3" /><g
     transform="matrix(0.14323222,0,0,0.14323222,-2.76867,-29.52684)"
     id="g3616"
     style="fill:#ffffff"><path
       style="fill:#ffffff"
       id="path3618"
       d="m 201.4,1181.1 -3.2,2.2 c -4.8,-6.1 -12.2,-13.5 -18.3,-18.6 -6.4,7.7 -14.4,14.3 -22.8,18.6 l -2.3,-3 c 16.3,-7.7 30.1,-24.8 34.2,-38 l -30.6,0 0,-3.3 32.7,0 2.5,1.4 c -2.3,7.4 -6.4,14.9 -11.5,21.6 6.5,5.5 14,12.9 19.3,19.1 z"
       class="st1" /><path
       style="fill:#ffffff"
       id="path3620"
       d="m 269.7,1155.1 -20.3,0 c -0.3,13.2 -3.7,21.6 -16.7,28.5 l -2.7,-2.8 c 12.5,-6.1 15.5,-13.2 15.7,-25.7 l -24.3,0 0,-3.3 48.2,0 0,3.3 z m -6.5,-14.3 -35.1,0 0,-3.3 35.1,0 0,3.3 z"
       class="st1" /><path
       style="fill:#ffffff"
       id="path3622"
       d="m 317.2,1150.4 0,33 -3.7,0 0,-30.3 c -7.2,5 -14.8,9.3 -21.6,11.9 l -1.9,-3.2 c 14.1,-5 33.3,-18.7 40.8,-28.6 l 2.9,2.2 c -3.9,4.7 -9.8,10 -16.5,15 z"
       class="st1" /><path
       style="fill:#ffffff"
       id="path3624"
       d="m 390.7,1167.7 c -6.6,-4.7 -17.1,-10.5 -25.1,-14.2 l 0,29.9 -3.7,0 0,-50.4 3.7,0 0,16.6 c 8.3,3.8 19.9,10.1 27.5,15.2 l -2.4,2.9 z"
       class="st1" /><path
       style="fill:#ffffff"
       id="path3626"
       d="m 427.5,1158.2 c 0,1.9 -1.6,3.5 -3.5,3.5 -1.9,0 -3.5,-1.6 -3.5,-3.5 0,-1.9 1.6,-3.5 3.5,-3.5 1.9,0 3.5,1.6 3.5,3.5 z"
       class="st1" /><path
       style="fill:#ffffff"
       id="path3628"
       d="m 502,1148.9 -15.4,0 0,26.7 c 0,5.1 -1.9,7.9 -7.3,7.9 -2.5,0 -5.2,-0.1 -7.8,-0.5 l 0,-3.5 c 2.3,0.4 5,0.5 7.1,0.5 3.2,0 4.4,-1.5 4.4,-4.6 l 0,-22.2 c -6.2,9 -16.8,18.7 -25.9,24.4 l -2.5,-2.7 c 9.5,-5.4 21.6,-16.7 27,-25.9 l -26.6,0 0,-3.4 28,0 0,-12.6 3.6,0 0,12.5 15.4,0 0,3.4 z"
       class="st1" /><path
       style="fill:#ffffff"
       id="path3630"
       d="m 561.9,1140.4 2.8,1.5 c -4.2,18.4 -13.8,33.1 -32.6,41.3 l -2.4,-2.9 c 18,-7.5 27.1,-20.9 30.7,-36.6 l -37.8,0 0,-3.4 39.3,0 z m -1.1,-9.1 c 2.4,2.5 4.5,5.4 6.3,8.5 l -2,1.3 c -1.7,-3 -3.9,-6 -6.2,-8.5 l 1.9,-1.3 z m 12.7,6 -2,1.2 c -1.7,-3 -3.9,-6 -6.2,-8.5 l 1.9,-1.3 c 2.4,2.5 4.4,5.5 6.3,8.6 z"
       class="st1" /><path
       style="fill:#ffffff"
       id="path3632"
       d="m 604.3,1158.2 c 0,1.9 -1.6,3.5 -3.5,3.5 -1.9,0 -3.5,-1.6 -3.5,-3.5 0,-1.9 1.6,-3.5 3.5,-3.5 1.9,0 3.5,1.6 3.5,3.5 z"
       class="st1" /><path
       style="fill:#ffffff"
       id="path3634"
       d="m 669.7,1145 11.2,0 0,3.3 -11.2,0 0,6.6 c 0,13.6 -5.1,22.3 -19,28.7 l -2.3,-3 c 13.4,-5.6 17.7,-13.6 17.7,-25.4 l 0,-6.9 -20.8,0 0,15.6 -3.5,0 0,-15.6 -11.2,0 0,-3.3 11.2,0 0,-11.9 3.5,0 0,11.9 20.8,0 0,-12 3.6,0 0,12 z m 8.3,-2.3 c -1.7,-3 -3.8,-6 -6,-8.3 l 1.7,-1.4 c 2.3,2.5 4.4,5.4 6.1,8.4 l -1.8,1.3 z m 7.2,-5.4 -1.9,1.3 c -1.7,-3 -3.7,-5.9 -6,-8.3 l 1.7,-1.3 c 2.3,2.5 4.4,5.3 6.2,8.3 z"
       class="st1" /><path
       style="fill:#ffffff"
       id="path3636"
       d="m 716,1158.2 c 0,1.9 -1.6,3.5 -3.5,3.5 -1.9,0 -3.5,-1.6 -3.5,-3.5 0,-1.9 1.6,-3.5 3.5,-3.5 1.9,0 3.5,1.6 3.5,3.5 z"
       class="st1" /><path
       style="fill:#ffffff"
       id="path3638"
       d="m 768.2,1169.7 c 3.7,3.8 7.2,7.6 9.6,10.6 l -3,2.3 c -5.1,-6.9 -16.6,-18.4 -24.1,-24.2 l 2.5,-2.4 c 3.8,3 8.2,7 12.5,11.2 7.3,-6.9 16.3,-17 21,-24.2 l -43,0 0,-3.4 45.6,0 3,2.1 c -6.4,9.5 -16.2,20.6 -24.1,28 z"
       class="st1" /><path
       style="fill:#ffffff"
       id="path3640"
       d="m 820.6,1164 -2.9,1.2 c -1,-3.6 -3.3,-8.9 -5.5,-12.3 l 2.8,-1.3 c 2.2,3.8 4.3,8.6 5.6,12.4 z m 25.3,-12.8 c -2.5,14.2 -10.7,26.1 -23.7,32 l -2.1,-2.8 c 12.9,-5.4 20.4,-16.4 22.6,-30 l 3.2,0.8 z m -17.7,11.8 c -0.9,-3.7 -3,-9 -4.9,-12.6 l 2.8,-1.2 c 2.1,3.9 3.9,8.8 5,12.6 l -2.9,1.2 z"
       class="st1" /><path
       style="fill:#ffffff"
       id="path3642"
       d="m 908.2,1140.6 2.8,1.5 c -4.2,18.4 -13.7,32.9 -32.5,41.1 l -2.5,-2.9 c 18,-7.5 27.2,-20.7 30.7,-36.4 l -37.7,0 0,-3.4 39.2,0 z m 11.6,-5.7 c 0,3.4 -2.7,6.1 -6.1,6.1 -3.4,0 -6.1,-2.8 -6.1,-6.1 0,-3.3 2.7,-6.1 6.1,-6.1 3.4,0 6.1,2.7 6.1,6.1 z m -1.6,0 c 0,-2.5 -2,-4.5 -4.5,-4.5 -2.5,0 -4.5,2 -4.5,4.5 0,2.5 2,4.6 4.5,4.6 2.5,0 4.5,-2.1 4.5,-4.6 z"
       class="st1" /></g></svg>