<?xml version="1.0" encoding="UTF-8" standalone="no"?>
<!-- Generator: Adobe Illustrator 21.0.0, SVG Export Plug-In . SVG Version: 6.00 Build 0)  -->

<svg
   xmlns:dc="http://purl.org/dc/elements/1.1/"
   xmlns:cc="http://creativecommons.org/ns#"
   xmlns:rdf="http://www.w3.org/1999/02/22-rdf-syntax-ns#"
   xmlns:svg="http://www.w3.org/2000/svg"
   xmlns="http://www.w3.org/2000/svg"
   xmlns:xlink="http://www.w3.org/1999/xlink"
   xmlns:sodipodi="http://sodipodi.sourceforge.net/DTD/sodipodi-0.dtd"
   xmlns:inkscape="http://www.inkscape.org/namespaces/inkscape"
   version="1.1"
   id="Layer_1"
   x="0px"
   y="0px"
   viewBox="0 0 984.6 1517.3"
   xml:space="preserve"
   inkscape:version="0.91+devel+osxmenu r12911"
   sodipodi:docname="logo-dark.svg"
   width="984.59998"
   height="1517.3"><metadata
     id="metadata3698"><rdf:RDF><cc:Work
         rdf:about=""><dc:format>image/svg+xml</dc:format><dc:type
           rdf:resource="http://purl.org/dc/dcmitype/StillImage" /><dc:title /></cc:Work></rdf:RDF></metadata><defs
     id="defs3696"><defs
       id="defs3566"><path
         inkscape:connector-curvature="0"
         d="m 204.5,655.5 c 0,184.6 149.7,334.3 334.3,334.3 184.6,0 334.3,-149.7 334.3,-334.3 0,-184.6 -149.7,-334.3 -334.3,-334.3 -184.7,0 -334.3,149.7 -334.3,334.3"
         id="SVGID_1_" /></defs><clipPath
       id="SVGID_2_"><use
         height="100%"
         width="100%"
         y="0"
         x="0"
         id="use3570"
         style="overflow:visible"
         xlink:href="#SVGID_1_" /></clipPath><filter
       inkscape:collect="always"
       style="color-interpolation-filters:sRGB"
       id="filter57381"
       x="-0.011999982"
       width="1.024"
       y="-0.012000018"
       height="1.024"><feGaussianBlur
         inkscape:collect="always"
         stdDeviation="3.2466846"
         id="feGaussianBlur57383" /></filter></defs><sodipodi:namedview
     pagecolor="#ffffff"
     bordercolor="#666666"
     borderopacity="1"
     objecttolerance="10"
     gridtolerance="10"
     guidetolerance="10"
     inkscape:pageopacity="0"
     inkscape:pageshadow="2"
     inkscape:window-width="1280"
     inkscape:window-height="751"
     id="namedview3694"
     showgrid="false"
     fit-margin-top="100"
     fit-margin-left="100"
     fit-margin-right="100"
     fit-margin-bottom="100"
     inkscape:zoom="0.35355339"
     inkscape:cx="688.92918"
     inkscape:cy="762.36155"
     inkscape:window-x="9"
     inkscape:window-y="23"
     inkscape:window-maximized="0"
     inkscape:current-layer="Layer_1" /><style
     type="text/css"
     id="style3546">
	.st0{fill:#FFFFFF;}
	.st1{fill:#D81B60;}
	.st2{clip-path:url(#SVGID_2_);fill:#FFFFFF;}
	.st3{fill:none;stroke:#FFFFFF;stroke-width:5;stroke-miterlimit:10;}
</style><path
     id="path57379"
     d="m 492.13477,245.98675 c -43.74203,0 -86.32387,8.6153 -126.33789,25.51562 -38.6885,16.40328 -73.4005,39.76574 -103.22461,69.58985 -29.82412,29.82411 -53.26944,64.5361 -69.58985,103.22461 -16.90034,40.01401 -25.51758,82.513 -25.51758,126.33789 0,43.74203 8.61724,86.32387 25.51758,126.33789 16.40325,38.68851 39.76573,73.4005 69.58985,103.22461 29.82411,29.82412 64.53611,53.26942 103.22461,69.58984 40.01403,16.90034 82.51301,25.51563 126.33789,25.51563 43.82488,0 86.40672,-8.61529 126.33789,-25.51563 38.68851,-16.40325 73.40049,-39.76572 103.22461,-69.58984 29.82411,-29.82411 53.26942,-64.5361 69.58984,-103.22461 16.90033,-40.01402 25.51562,-82.51302 25.51562,-126.33789 0,-43.82489 -8.53244,-86.32388 -25.51562,-126.33789 C 774.88385,405.62832 751.52138,370.91633 721.69727,341.09222 691.87315,311.26811 657.16117,287.8228 618.47266,271.50237 578.45864,254.60205 535.8768,245.98675 492.13477,245.98675 Z m 0,30.81836 c 39.68264,0 78.20505,7.78699 114.4082,23.11328 34.96049,14.74636 66.35784,35.95355 93.36523,62.96094 27.0074,26.92455 48.13368,58.4067 62.96289,93.36719 15.32628,36.286 23.11329,74.72555 23.11329,114.4082 0,39.68263 -7.78701,78.20504 -23.11329,114.4082 -14.74637,34.96049 -35.95549,66.3598 -62.96289,93.36719 -26.92455,27.00739 -58.40474,48.13173 -93.36523,62.96094 -36.286,15.32628 -74.72556,23.11328 -114.4082,23.11328 -39.68264,0 -78.20505,-7.787 -114.40821,-23.11328 -34.9605,-14.74636 -66.3598,-36.0364 -93.36718,-62.96094 -27.00739,-26.92456 -48.13172,-58.4067 -62.96094,-93.36719 -15.32627,-36.28601 -23.11524,-74.72557 -23.11524,-114.4082 0,-39.68265 7.78897,-78.20504 23.11524,-114.4082 14.74638,-34.96049 36.03638,-66.35979 62.96094,-93.36719 26.92454,-27.00739 58.40668,-48.13173 93.36718,-62.96094 36.286,-15.32629 74.72557,-23.11328 114.40821,-23.11328 z m 31.48046,19.88281 -2.48437,38.35547 c 7.53887,7.12465 12.25976,17.23197 12.25976,28.41602 0,1.40835 -0.0823,2.73502 -0.24804,4.06054 L 760.7168,498.91058 C 731.22407,390.79817 637.85815,309.03179 523.61523,296.68792 Z m -59.81445,0.082 C 349.14363,309.03098 255.44732,391.2132 226.20312,499.82269 L 455.26758,367.43597 c -0.16569,-1.32552 -0.16406,-2.56707 -0.16406,-3.89258 0,-10.68698 4.30666,-20.38007 11.26562,-27.42187 l -2.56836,-39.35157 z m 30.32227,48.21485 c -10.27275,0 -18.5586,8.36869 -18.5586,18.55859 0,10.18991 8.36869,18.55664 18.5586,18.55664 10.27275,0 18.55664,-8.36673 18.55664,-18.55664 0,-10.27275 -8.36673,-18.55859 -18.55664,-18.55859 z m 0,6.71093 c 6.4619,0 11.76367,5.30374 11.76367,11.76563 0,6.46189 -5.21893,11.76172 -11.76367,11.76172 -6.46189,0 -11.76367,-5.29983 -11.76367,-11.76172 0,-6.46189 5.30178,-11.76563 11.76367,-11.76563 z m -0.082,50.94922 -277.28321,160.14063 c -0.0828,3.06525 -0.16601,6.12924 -0.16601,9.27734 0,152.93143 124.01975,276.95117 276.95117,276.95117 152.93144,0 276.94922,-124.01974 276.94922,-276.95117 0,-3.39664 -0.0824,-6.71045 -0.24805,-9.9414 L 494.04102,402.64495 Z m -106.04297,72.24219 211.41992,0 0,49.87109 -211.41992,0 0,-49.87109 z m -66.10938,80.77344 49.87305,0 0,49.87109 -49.87305,0 0,-49.87109 z m 97.92188,0 49.87304,0 0,49.87109 -49.87304,0 0,-49.87109 z m 97.83984,0 49.87305,0 0,49.87109 -49.87305,0 0,-49.87109 z m 97.83984,0 49.8711,0 0,49.87109 -49.8711,0 0,-49.87109 z M 322.3848,636.35 l 342.5625,0 0,49.87305 -342.5625,0 0,-49.87305 z m 0,80.85742 342.5625,0 0,49.87305 -342.5625,0 0,-49.87305 z"
     style="opacity:0.1;fill:#000000;fill-opacity:1;stroke:#000000;stroke-width:8;stroke-linecap:round;stroke-linejoin:round;stroke-miterlimit:4;stroke-dasharray:none;stroke-opacity:1;filter:url(#filter57381)"
     inkscape:connector-curvature="0" /><path
     style="fill:#e75152;fill-opacity:1;stroke-width:1"
     d="m 492.13477,245.98675 c -43.74203,0 -86.32387,8.6153 -126.33789,25.51562 -38.6885,16.40328 -73.4005,39.76574 -103.22461,69.58985 -29.82412,29.82411 -53.26944,64.5361 -69.58985,103.22461 -16.90034,40.01401 -25.51758,82.513 -25.51758,126.33789 0,43.74203 8.61724,86.32387 25.51758,126.33789 16.40325,38.68851 39.76573,73.4005 69.58985,103.22461 29.82411,29.82412 64.53611,53.26942 103.22461,69.58984 40.01403,16.90034 82.51301,25.51563 126.33789,25.51563 43.82488,0 86.40672,-8.61529 126.33789,-25.51563 38.68851,-16.40325 73.40049,-39.76572 103.22461,-69.58984 29.82411,-29.82411 53.26942,-64.5361 69.58984,-103.22461 16.90033,-40.01402 25.51562,-82.51302 25.51562,-126.33789 0,-43.82489 -8.53244,-86.32388 -25.51562,-126.33789 C 774.88385,405.62832 751.52138,370.91633 721.69727,341.09222 691.87315,311.26811 657.16117,287.8228 618.47266,271.50237 578.45864,254.60205 535.8768,245.98675 492.13477,245.98675 Z m 0,30.81836 c 39.68264,0 78.20505,7.78699 114.4082,23.11328 34.96049,14.74636 66.35784,35.95355 93.36523,62.96094 27.0074,26.92455 48.13368,58.4067 62.96289,93.36719 15.32628,36.286 23.11329,74.72555 23.11329,114.4082 0,39.68263 -7.78701,78.20504 -23.11329,114.4082 -14.74637,34.96049 -35.95549,66.3598 -62.96289,93.36719 -26.92455,27.00739 -58.40474,48.13173 -93.36523,62.96094 -36.286,15.32628 -74.72556,23.11328 -114.4082,23.11328 -39.68264,0 -78.20505,-7.787 -114.40821,-23.11328 -34.9605,-14.74636 -66.3598,-36.0364 -93.36718,-62.96094 -27.00739,-26.92456 -48.13172,-58.4067 -62.96094,-93.36719 -15.32627,-36.28601 -23.11524,-74.72557 -23.11524,-114.4082 0,-39.68265 7.78897,-78.20504 23.11524,-114.4082 14.74638,-34.96049 36.03638,-66.35979 62.96094,-93.36719 26.92454,-27.00739 58.40668,-48.13173 93.36718,-62.96094 36.286,-15.32629 74.72557,-23.11328 114.40821,-23.11328 z m 31.48046,19.88281 -2.48437,38.35547 c 7.53887,7.12465 12.25976,17.23197 12.25976,28.41602 0,1.40835 -0.0823,2.73502 -0.24804,4.06054 L 760.7168,498.91058 C 731.22407,390.79817 637.85815,309.03179 523.61523,296.68792 Z m -59.81445,0.082 C 349.14363,309.03098 255.44732,391.2132 226.20312,499.82269 L 455.26758,367.43597 c -0.16569,-1.32552 -0.16406,-2.56707 -0.16406,-3.89258 0,-10.68698 4.30666,-20.38007 11.26562,-27.42187 l -2.56836,-39.35157 z m 30.32227,48.21485 c -10.27275,0 -18.5586,8.36869 -18.5586,18.55859 0,10.18991 8.36869,18.55664 18.5586,18.55664 10.27275,0 18.55664,-8.36673 18.55664,-18.55664 0,-10.27275 -8.36673,-18.55859 -18.55664,-18.55859 z m 0,6.71093 c 6.4619,0 11.76367,5.30374 11.76367,11.76563 0,6.46189 -5.21893,11.76172 -11.76367,11.76172 -6.46189,0 -11.76367,-5.29983 -11.76367,-11.76172 0,-6.46189 5.30178,-11.76563 11.76367,-11.76563 z m -0.082,50.94922 -277.28321,160.14063 c -0.0828,3.06525 -0.16601,6.12924 -0.16601,9.27734 0,152.93143 124.01975,276.95117 276.95117,276.95117 152.93144,0 276.94922,-124.01974 276.94922,-276.95117 0,-3.39664 -0.0824,-6.71045 -0.24805,-9.9414 L 494.04102,402.64495 Z m -106.04297,72.24219 211.41992,0 0,49.87109 -211.41992,0 0,-49.87109 z m -66.10938,80.77344 49.87305,0 0,49.87109 -49.87305,0 0,-49.87109 z m 97.92188,0 49.87304,0 0,49.87109 -49.87304,0 0,-49.87109 z m 97.83984,0 49.87305,0 0,49.87109 -49.87305,0 0,-49.87109 z m 97.83984,0 49.8711,0 0,49.87109 -49.8711,0 0,-49.87109 z M 322.3848,636.35 l 342.5625,0 0,49.87305 -342.5625,0 0,-49.87305 z m 0,80.85742 342.5625,0 0,49.87305 -342.5625,0 0,-49.87305 z"
     id="path3554"
     inkscape:connector-curvature="0" /><path
     class="st1"
     d="m 233.57579,1109.0629 c 0,24.3564 -16.56894,31.2323 -33.55212,31.2323 -12.09533,0 -26.26179,-2.8994 -32.72368,-5.9647 l 5.71628,-20.7112 c 7.12465,3.5624 17.72879,6.6276 25.84758,6.6276 5.13637,0 11.6811,-1.9883 11.6811,-9.7757 0,-5.7991 -4.6393,-9.7756 -17.23171,-15.4091 -14.08361,-6.2133 -23.85929,-12.1781 -23.85929,-29.41 0,-25.1848 20.71119,-30.3211 33.13791,-30.3211 11.6811,0 21.62248,2.1539 28.00152,4.805 l -6.13051,19.6341 c -6.46188,-3.0652 -13.75223,-4.8878 -19.38567,-4.8878 -5.46775,0 -13.08947,1.0769 -13.08947,9.5271 0,5.1365 6.37904,8.3674 14.16646,12.1782 14.00076,6.8763 27.4216,13.8352 27.4216,32.4753 z"
     id="path3588"
     inkscape:connector-curvature="0"
     style="fill:#ffffff;fill-opacity:1;stroke-width:1" /><path
     class="st1"
     d="m 324.62219,1036.8223 0,19.6342 -25.3505,0 0,82.1819 -22.7823,0 0,-82.182 -25.3505,0 0,-19.6341 73.4833,0 z"
     id="path3590"
     inkscape:connector-curvature="0"
     style="fill:#ffffff;fill-opacity:1;stroke-width:1" /><path
     class="st1"
     d="m 730.64437,1274.918 -25.01912,0 -7.9531,-22.3681 -35.20903,0 -7.70456,22.3681 -22.94799,0 38.93703,-101.7334 20.95973,0 38.93704,101.7334 z m -37.9429,-39.8483 -12.34387,-37.1145 -12.42672,37.1145 24.77059,0 z"
     id="path3592"
     inkscape:connector-curvature="0"
     style="fill:#ffffff;fill-opacity:1;stroke-width:1" /><path
     class="st1"
     d="m 426.02418,1138.6383 -25.01912,0 -7.9531,-22.368 -35.20902,0 -7.70456,22.368 -22.948,0 38.93704,-101.7332 20.95972,0 38.93704,101.7332 z m -37.86006,-39.931 -12.34387,-37.1145 -12.42671,37.1145 24.77058,0 z"
     id="path3594"
     inkscape:connector-curvature="0"
     style="fill:#ffffff;fill-opacity:1;stroke-width:1" /><path
     class="st1"
     d="m 499.59033,1036.8223 0,19.6342 -25.3505,0 0,82.1819 -22.7823,0 0,-82.182 -25.3505,0 0,-19.6341 73.4833,0 z"
     id="path3596"
     inkscape:connector-curvature="0"
     style="fill:#ffffff;fill-opacity:1;stroke-width:1" /><path
     class="st1"
     d="m 580.44682,1119.0042 0,19.6341 -60.14531,0 0,-101.7332 57.7428,0 0,19.6342 -35.45755,0 0,21.0426 30.73541,0 0,18.8057 -30.73541,0 0,22.6994 37.86006,0 z"
     id="path3598"
     inkscape:connector-curvature="0"
     style="fill:#ffffff;fill-opacity:1;stroke-width:1" /><path
     class="st1"
     d="m 736.36065,1087.4403 c 0,24.1078 -10.43843,53.9319 -48.8784,53.9319 -38.43997,0 -48.87842,-29.824 -48.87842,-54.0974 0,-23.6109 10.43845,-52.8551 48.87842,-52.8551 38.43997,0 48.8784,29.3271 48.8784,53.0207 z m -24.27351,-0.3314 c 0,-24.7705 -10.35559,-32.7237 -24.68774,-32.7237 -14.33214,0 -24.68774,7.9532 -24.68774,32.7237 0,25.3505 10.3556,34.0492 24.68774,34.0492 14.33215,0 24.68774,-8.7816 24.68774,-34.0492 z"
     id="path3600"
     inkscape:connector-curvature="0"
     style="fill:#ffffff;fill-opacity:1;stroke-width:1" /><path
     class="st1"
     d="m 782.83656,1056.4565 0,22.9479 30.90111,0 0,19.6341 -30.90111,0 0,39.5998 -22.53377,0 0,-101.7333 56.9972,0 0,19.6343 -34.46343,0 z"
     id="path3602"
     inkscape:connector-curvature="0"
     style="fill:#ffffff;fill-opacity:1;stroke-width:1" /><path
     class="st1"
     d="m 239.872,1173.7646 0,19.3856 -25.01912,0 0,81.1879 -22.53378,0 0,-81.1879 -25.01911,0 0,-19.3856 72.57201,0 z"
     id="path3604"
     inkscape:connector-curvature="0"
     style="fill:#ffffff;fill-opacity:1;stroke-width:1" /><path
     class="st1"
     d="m 348.56432,1173.7646 0,100.5735 -22.53377,0 0,-41.671 -40.34539,0 0,41.671 -22.53378,0 0,-100.5735 22.53378,0 0,39.5168 40.34539,0 0,-39.5168 22.53377,0 z"
     id="path3606"
     inkscape:connector-curvature="0"
     style="fill:#ffffff;fill-opacity:1;stroke-width:1" /><path
     class="st1"
     d="m 433.72874,1254.9524 0,19.3857 -59.48254,0 0,-100.5735 57.08004,0 0,19.3856 -35.12618,0 0,20.7941 30.40403,0 0,18.64 -30.40403,0 0,22.3681 37.52868,0 z"
     id="path3608"
     inkscape:connector-curvature="0"
     style="fill:#ffffff;fill-opacity:1;stroke-width:1" /><path
     class="st1"
     d="m 616.40144,1274.3381 -22.69946,0 -2.89958,-73.3176 -21.45678,68.6782 -19.63421,0 -21.62248,-68.6782 -2.23681,73.3176 -21.37395,0 5.21922,-100.5735 29.74126,0 20.79404,67.4356 20.04844,-67.4356 30.81824,0 5.30207,100.5735 z"
     id="path3610"
     inkscape:connector-curvature="0"
     style="fill:#ffffff;fill-opacity:1;stroke-width:1" /><path
     class="st1"
     d="m 817.29999,1205.5769 c 0,25.4334 -16.90033,35.6233 -35.20903,35.6233 l -13.58654,0 0,33.1379 -22.53377,0 0,-100.5735 28.82997,0 c 23.61076,0 42.49937,7.2075 42.49937,31.8123 z m -22.948,1.4085 c 0,-8.6159 -5.88198,-13.918 -18.8886,-13.918 l -7.04181,0 0,29.4928 7.62172,0 c 12.67524,0.083 18.30869,-3.7281 18.30869,-15.5748 z"
     id="path3612"
     inkscape:connector-curvature="0"
     style="fill:#ffffff;fill-opacity:1;stroke-width:1" /><path
     class="st3"
     d="M 375.40603,1037.4021"
     id="path3614"
     inkscape:connector-curvature="0"
     style="fill:#ffffff;fill-opacity:1;stroke:#ffffff;stroke-width:5;stroke-miterlimit:10" /><path
     style="fill:#ffffff;fill-opacity:1;stroke-width:1"
     inkscape:connector-curvature="0"
     id="path3618"
     d="m 214.02443,1007.4122 -2.65103,1.8226 c -3.97655,-5.0535 -10.10706,-11.18404 -15.16059,-15.40912 -5.30207,6.37902 -11.92965,11.84682 -18.88861,15.40912 l -1.90543,-2.4853 c 13.5037,-6.3791 24.93628,-20.54554 28.33291,-31.48105 l -25.3505,0 0,-2.73387 27.09024,0 2.07112,1.15982 c -1.90543,6.13051 -5.30206,12.34387 -9.52715,17.89447 5.38491,4.55646 11.59827,10.68693 15.98904,15.82333 z"
     class="st1" /><path
     style="fill:#ffffff;fill-opacity:1;stroke-width:1"
     inkscape:connector-curvature="0"
     id="path3620"
     d="m 270.6074,985.87258 -16.81748,0 c -0.24854,10.93551 -3.06526,17.89442 -13.83508,23.61072 l -2.23681,-2.3196 c 10.3556,-5.0535 12.84094,-10.93552 13.00663,-21.29112 l -20.13128,0 0,-2.73388 39.93118,0 0,2.73388 z m -5.38491,-11.8468 -29.07851,0 0,-2.73388 29.07851,0 0,2.73388 z"
     class="st1" /><path
     style="fill:#ffffff;fill-opacity:1;stroke-width:1"
     inkscape:connector-curvature="0"
     id="path3622"
     d="m 309.95866,981.97888 0,27.33872 -3.06525,0 0,-25.10191 c -5.96482,4.14223 -12.26103,7.70456 -17.89447,9.85852 l -1.57405,-2.65103 c 11.68111,-4.14224 27.58731,-15.49197 33.80066,-23.6936 l 2.4025,1.82258 c -3.23095,3.89371 -8.11879,8.28448 -13.66939,12.42672 z"
     class="st1" /><path
     style="fill:#ffffff;fill-opacity:1;stroke-width:1"
     inkscape:connector-curvature="0"
     id="path3624"
     d="m 370.84956,996.31102 c -5.46775,-3.8937 -14.16645,-8.6987 -20.79403,-11.76395 l 0,24.77053 -3.06526,0 0,-41.75371 3.06526,0 0,13.75223 c 6.87611,3.1481 16.48611,8.36732 22.78231,12.5924 l -1.98828,2.4025 z"
     class="st1" /><path
     style="fill:#ffffff;fill-opacity:1;stroke-width:1"
     inkscape:connector-curvature="0"
     id="path3626"
     d="m 401.33644,988.44077 c 0,1.57405 -1.32552,2.89957 -2.89957,2.89957 -1.57405,0 -2.89957,-1.32552 -2.89957,-2.89957 0,-1.57405 1.32552,-2.89957 2.89957,-2.89957 1.57405,0 2.89957,1.32552 2.89957,2.89957 z"
     class="st1" /><path
     style="fill:#ffffff;fill-opacity:1;stroke-width:1"
     inkscape:connector-curvature="0"
     id="path3628"
     d="m 463.05578,980.73621 -12.75809,0 0,22.11959 c 0,4.225 -1.57405,6.5447 -6.04767,6.5447 -2.07112,0 -4.30793,-0.083 -6.46189,-0.4142 l 0,-2.8996 c 1.90543,0.3314 4.14224,0.4142 5.88198,0.4142 2.65103,0 3.64517,-1.2426 3.64517,-3.8108 l 0,-18.39157 c -5.13638,7.45603 -13.91792,15.49197 -21.45679,20.21407 l -2.07112,-2.2368 c 7.87025,-4.47357 17.89446,-13.83503 22.36808,-21.45675 l -22.0367,0 0,-2.81672 23.19653,0 0,-10.43844 2.98241,0 0,10.35559 12.75809,0 0,2.81673 z"
     class="st1" /><path
     style="fill:#ffffff;fill-opacity:1;stroke-width:1"
     inkscape:connector-curvature="0"
     id="path3630"
     d="m 512.6798,973.6944 2.31965,1.24267 c -3.47948,15.24344 -11.43258,27.42163 -27.00739,34.21493 l -1.98828,-2.4025 c 14.91206,-6.2134 22.45093,-17.31459 25.43334,-30.32122 l -31.31532,0 0,-2.81672 32.558,0 z m -0.9113,-7.53887 c 1.98828,2.07112 3.72802,4.47362 5.21922,7.0418 l -1.65689,1.07699 c -1.40836,-2.48535 -3.23095,-4.97069 -5.13638,-7.04181 l 1.57405,-1.07698 z m 10.52129,4.97068 -1.6569,0.99414 c -1.40836,-2.48534 -3.23094,-4.97068 -5.13637,-7.0418 l 1.57405,-1.07698 c 1.98827,2.07111 3.64517,4.55646 5.21922,7.12464 z"
     class="st1" /><path
     style="fill:#ffffff;fill-opacity:1;stroke-width:1"
     inkscape:connector-curvature="0"
     id="path3632"
     d="m 547.80597,988.44077 c 0,1.57405 -1.32551,2.89957 -2.89956,2.89957 -1.57405,0 -2.89957,-1.32552 -2.89957,-2.89957 0,-1.57405 1.32552,-2.89957 2.89957,-2.89957 1.57405,0 2.89956,1.32552 2.89956,2.89957 z"
     class="st1" /><path
     style="fill:#ffffff;fill-opacity:1;stroke-width:1"
     inkscape:connector-curvature="0"
     id="path3634"
     d="m 601.98645,977.50526 9.27861,0 0,2.73388 -9.27861,0 0,5.46775 c 0,11.26689 -4.22509,18.47441 -15.74051,23.77641 l -1.90543,-2.4853 c 11.1012,-4.6393 14.66353,-11.26689 14.66353,-21.04257 l 0,-5.71629 -17.23171,0 0,12.92378 -2.89957,0 0,-12.92378 -9.27861,0 0,-2.73388 9.27861,0 0,-9.85853 2.89957,0 0,9.85853 17.23171,0 0,-9.94137 2.98241,0 0,9.94137 z m 6.87611,-1.90543 c -1.40836,-2.48534 -3.1481,-4.97068 -4.97068,-6.87611 l 1.40836,-1.15983 c 1.90543,2.07112 3.64517,4.47362 5.05353,6.95896 l -1.49121,1.07698 z m 5.96483,-4.47362 -1.57406,1.07699 c -1.40836,-2.48535 -3.06525,-4.88784 -4.97068,-6.87612 l 1.40836,-1.07698 c 1.90543,2.07112 3.64517,4.39077 5.13638,6.87611 z"
     class="st1" /><path
     style="fill:#ffffff;fill-opacity:1;stroke-width:1"
     inkscape:connector-curvature="0"
     id="path3636"
     d="m 640.34357,988.44077 c 0,1.57405 -1.32551,2.89957 -2.89956,2.89957 -1.57406,0 -2.89957,-1.32552 -2.89957,-2.89957 0,-1.57405 1.32551,-2.89957 2.89957,-2.89957 1.57405,0 2.89956,1.32552 2.89956,2.89957 z"
     class="st1" /><path
     style="fill:#ffffff;fill-opacity:1;stroke-width:1"
     inkscape:connector-curvature="0"
     id="path3638"
     d="m 683.58854,997.96792 c 3.06525,3.14808 5.96482,6.29618 7.95309,8.78158 l -2.48534,1.9054 c -4.22508,-5.7163 -13.75223,-15.24344 -19.96559,-20.04844 l 2.07112,-1.98828 c 3.1481,2.48535 6.79327,5.79914 10.3556,9.27862 6.04767,-5.71629 13.50369,-14.08361 17.3974,-20.04843 l -35.62325,0 0,-2.81673 37.77721,0 2.48534,1.73974 c -5.30206,7.87026 -13.42085,17.06602 -19.96558,23.19654 z"
     class="st1" /><path
     style="fill:#ffffff;fill-opacity:1;stroke-width:1"
     inkscape:connector-curvature="0"
     id="path3640"
     d="m 726.99919,993.24577 -2.4025,0.99413 c -0.82844,-2.98241 -2.73387,-7.37318 -4.55646,-10.1899 l 2.31966,-1.07698 c 1.82258,3.1481 3.56232,7.12464 4.6393,10.27275 z m 20.95973,-10.60413 c -2.07112,11.76395 -8.86439,21.62246 -19.63421,26.51036 l -1.73974,-2.3197 c 10.68697,-4.4736 16.90033,-13.58653 18.72291,-24.85342 l 2.65104,0.66276 z m -14.66353,9.77568 c -0.7456,-3.06526 -2.48534,-7.45603 -4.05939,-10.43844 l 2.31965,-0.99414 c 1.73974,3.23095 3.23095,7.29034 4.14224,10.43844 l -2.4025,0.99414 z"
     class="st1" /><path
     style="fill:#ffffff;fill-opacity:1;stroke-width:1"
     inkscape:connector-curvature="0"
     id="path3642"
     d="m 799.5712,973.86009 2.31966,1.24267 c -3.47948,15.24344 -11.34974,27.25594 -26.92455,34.04924 l -2.07112,-2.4025 c 14.91206,-6.2134 22.53377,-17.1489 25.43334,-30.15553 l -31.23247,0 0,-2.81672 32.47514,0 z m 9.60999,-4.72215 c 0,2.81672 -2.2368,5.05353 -5.05353,5.05353 -2.81672,0 -5.05353,-2.31965 -5.05353,-5.05353 0,-2.73388 2.23681,-5.05353 5.05353,-5.05353 2.81673,0 5.05353,2.23681 5.05353,5.05353 z m -1.32551,0 c 0,-2.07112 -1.6569,-3.72801 -3.72802,-3.72801 -2.07111,0 -3.72801,1.65689 -3.72801,3.72801 0,2.07112 1.6569,3.81086 3.72801,3.81086 2.07112,0 3.72802,-1.73974 3.72802,-3.81086 z"
     class="st1" /><path
     style="fill:#ffffff;fill-opacity:1;stroke-width:1"
     inkscape:connector-curvature="0"
     id="path3646"
     d="m 192.73333,1329.4298 -1.40836,-6.7933 -7.87026,0 -1.32551,6.7933 -6.13051,0 c 1.40836,-5.7992 2.81672,-11.1012 4.22508,-15.9062 1.40836,-4.805 2.81672,-9.2787 4.14224,-13.5866 l 6.37904,0 c 1.40836,4.3079 2.81673,8.8644 4.14224,13.7523 1.32552,4.8878 2.73388,10.107 4.0594,15.7405 l -6.21336,0 z m -5.30207,-23.6936 c -0.33138,1.0769 -0.57991,2.1539 -0.91129,3.1481 -0.24853,0.9941 -0.49707,1.9882 -0.7456,2.9824 -0.24854,0.9941 -0.49707,1.9054 -0.66276,2.8995 -0.16569,0.9942 -0.41422,1.9883 -0.57991,3.0653 l 5.79913,0 c -0.16569,-1.077 -0.41422,-2.0711 -0.57991,-3.0653 -0.16569,-0.9941 -0.41423,-1.9882 -0.66276,-2.8995 -0.24854,-0.9942 -0.49707,-1.9883 -0.7456,-2.9824 -0.24854,-0.9942 -0.57992,-2.0712 -0.9113,-3.1481 z"
     class="st1" /><path
     style="fill:#ffffff;fill-opacity:1;stroke-width:1"
     inkscape:connector-curvature="0"
     id="path3648"
     d="m 223.55158,1328.5185 c -1.24267,0.5799 -2.31965,0.9941 -3.39664,1.1598 -1.07698,0.1657 -2.07112,0.3314 -2.89956,0.3314 -1.49121,0 -2.81672,-0.2486 -3.81086,-0.6628 -0.99414,-0.4142 -1.82259,-1.077 -2.48534,-1.9054 -0.57992,-0.8285 -1.07699,-1.9054 -1.32552,-3.0653 -0.24853,-1.2426 -0.41422,-2.5682 -0.41422,-4.1422 l 0,-8.2016 -6.21336,0 0,-4.8879 12.01249,0 0,13.8351 c 0,1.3255 0.24853,2.3196 0.7456,2.9824 0.49707,0.6628 1.32552,0.9941 2.48534,0.9941 0.57992,0 1.15983,-0.083 1.98828,-0.2485 0.7456,-0.1657 1.65689,-0.4142 2.56819,-0.9113 l 0.7456,4.7222 z m -8.6987,-27.8359 c 0,1.1599 -0.33138,2.0711 -1.07698,2.7339 -0.74561,0.6628 -1.57405,0.9941 -2.65103,0.9941 -0.99414,0 -1.90543,-0.3313 -2.56819,-0.9941 -0.74561,-0.6628 -1.07698,-1.574 -1.07698,-2.7339 0,-1.1598 0.33137,-2.0711 1.07698,-2.7339 0.7456,-0.6627 1.57405,-0.9941 2.56819,-0.9941 0.99413,0 1.90542,0.3314 2.65103,0.9941 0.66276,0.58 1.07698,1.4913 1.07698,2.7339 z"
     class="st1" /><path
     style="fill:#ffffff;fill-opacity:1;stroke-width:1"
     inkscape:connector-curvature="0"
     id="path3650"
     d="m 247.32803,1311.3696 c -0.41423,0.4971 -1.07699,1.2427 -1.90543,2.2368 -0.82845,0.9941 -1.73974,2.154 -2.65104,3.3966 -0.99413,1.2427 -1.90543,2.5682 -2.89956,3.8937 -0.99414,1.3256 -1.82259,2.5682 -2.56819,3.7281 l 10.60413,0 0,4.8878 -17.64594,0 0,-3.5623 c 0.74561,-1.2427 1.49121,-2.4854 2.4025,-3.728 0.82845,-1.2427 1.73974,-2.4854 2.56819,-3.7281 0.82845,-1.2426 1.6569,-2.4025 2.48534,-3.4794 0.82845,-1.077 1.57405,-2.0712 2.23681,-2.9824 l -9.27861,0 0,-4.8879 16.6518,0 0,4.2251 z"
     class="st1" /><path
     style="fill:#ffffff;fill-opacity:1;stroke-width:1"
     inkscape:connector-curvature="0"
     id="path3652"
     d="m 273.58981,1328.6842 c -1.07698,0.2485 -2.40249,0.5799 -3.8937,0.8284 -1.57405,0.2485 -3.23094,0.4142 -5.05353,0.4142 -1.82258,0 -3.31379,-0.2485 -4.55646,-0.7456 -1.15983,-0.497 -2.07112,-1.2426 -2.81672,-2.1539 -0.66276,-0.9113 -1.15983,-2.0712 -1.40836,-3.3138 -0.24854,-1.2427 -0.41423,-2.6511 -0.41423,-4.2251 l 0,-12.5096 5.88198,0 0,11.6811 c 0,2.0712 0.24853,3.5624 0.7456,4.5565 0.49707,0.9941 1.49121,1.4912 2.89957,1.4912 0.91129,0 1.73974,-0.083 2.65103,-0.2485 l 0,-17.5631 5.88198,0 0,21.7882 z"
     class="st1" /><path
     style="fill:#ffffff;fill-opacity:1;stroke-width:1"
     inkscape:connector-curvature="0"
     id="path3654"
     d="m 283.86257,1314.352 13.08947,0 0,5.7991 -13.08947,0 0,-5.7991 z"
     class="st1" /><path
     style="fill:#ffffff;fill-opacity:1;stroke-width:1"
     inkscape:connector-curvature="0"
     id="path3656"
     d="m 318.24314,1310.4583 c 0.16569,0.5799 0.33138,1.3255 0.57991,2.2368 0.24854,0.9113 0.49707,1.9054 0.82845,2.9824 0.33138,1.077 0.66276,2.2368 0.99414,3.4795 0.33138,1.2427 0.7456,2.4853 1.07698,3.8109 0,-1.6569 -0.0828,-3.3967 -0.16569,-5.3021 -0.0828,-1.9054 -0.16569,-3.8109 -0.24853,-5.7991 -0.0829,-1.9883 -0.16569,-3.9766 -0.24854,-5.9649 -0.0828,-1.9882 -0.16569,-3.9765 -0.16569,-5.7991 l 5.88198,0 c -0.0828,2.4025 -0.16569,4.8879 -0.24853,7.456 -0.0829,2.5682 -0.16569,5.1364 -0.33138,7.6218 -0.16569,2.4853 -0.24854,4.9706 -0.41423,7.456 -0.16569,2.4853 -0.41422,4.7221 -0.57991,6.9589 l -4.88784,0 c -0.66276,-1.9882 -1.40836,-4.1422 -2.07112,-6.4618 -0.66276,-2.3197 -1.40836,-4.4737 -2.07112,-6.6276 -0.66276,1.9882 -1.40836,4.1422 -2.15396,6.5447 -0.7456,2.3197 -1.49121,4.5565 -2.07112,6.5447 l -4.88784,0 c -0.24854,-2.1539 -0.49707,-4.5564 -0.66276,-6.9589 -0.16569,-2.4854 -0.33138,-4.9707 -0.49707,-7.456 -0.16569,-2.4854 -0.24853,-5.0536 -0.33138,-7.6218 -0.0828,-2.5681 -0.16569,-5.0535 -0.24853,-7.3731 l 5.46775,0 c 0,1.9054 -0.0828,3.8108 -0.0828,5.7991 0,1.9883 -0.0829,3.9765 -0.0829,5.9648 0,1.9883 -0.0828,3.8937 -0.0828,5.7991 0,1.9055 -0.0829,3.6452 -0.0829,5.3021 0.24854,-0.9941 0.57992,-2.154 0.99414,-3.3138 0.33138,-1.2427 0.7456,-2.4025 1.07698,-3.5623 0.33138,-1.1598 0.66276,-2.2368 0.91129,-3.231 0.24854,-0.9941 0.49707,-1.7397 0.66276,-2.3196 l 4.14224,0 z"
     class="st1" /><path
     style="fill:#ffffff;fill-opacity:1;stroke-width:1"
     inkscape:connector-curvature="0"
     id="path3658"
     d="m 341.35683,1306.4818 c 1.82258,0 3.39663,0.2485 4.55646,0.6627 1.24267,0.4142 2.23681,0.9942 2.89957,1.8226 0.66276,0.8284 1.24267,1.7397 1.57405,2.8167 0.33138,1.1598 0.49707,2.4025 0.49707,3.8109 l 0,13.338 c -0.82845,0.1657 -2.15397,0.4142 -3.81086,0.6627 -1.6569,0.2486 -3.56233,0.4143 -5.63345,0.4143 -1.40836,0 -2.73387,-0.1657 -3.8937,-0.4143 -1.15983,-0.2485 -2.15396,-0.6627 -2.98241,-1.2426 -0.82845,-0.5799 -1.49121,-1.3255 -1.90543,-2.3197 -0.41422,-0.9113 -0.66276,-2.0711 -0.66276,-3.4795 0,-1.3255 0.24854,-2.4025 0.7456,-3.3137 0.49707,-0.9113 1.15983,-1.5741 2.07112,-2.154 0.9113,-0.5799 1.82259,-0.9113 2.98241,-1.1598 1.07699,-0.2486 2.23681,-0.3314 3.47948,-0.3314 1.49121,0 2.89957,0.1657 4.0594,0.4142 l 0,-0.7456 c 0,-1.077 -0.33138,-2.0711 -1.07698,-2.8167 -0.66276,-0.7456 -1.90543,-1.1598 -3.64517,-1.1598 -1.07699,0 -2.15397,0.083 -3.23095,0.2485 -0.99414,0.1657 -1.90543,0.3314 -2.48534,0.5799 l -0.82845,-4.7222 c 0.7456,-0.2485 1.73974,-0.497 3.06526,-0.6627 1.40836,-0.083 2.73387,-0.2485 4.22508,-0.2485 z m 0.49707,18.8057 c 0.66276,0 1.24267,0 1.82258,0 0.57992,0 1.15983,-0.083 1.57405,-0.083 l 0,-5.1364 c -0.41422,-0.083 -0.82844,-0.083 -1.40836,-0.1657 -0.57991,-0.083 -0.99413,-0.083 -1.4912,-0.083 -0.57992,0 -1.15983,0 -1.73974,0.083 -0.57992,0.083 -1.07699,0.2485 -1.49121,0.4142 -0.41422,0.1657 -0.7456,0.4971 -0.99414,0.8285 -0.24853,0.3314 -0.41422,0.8284 -0.41422,1.4083 0,0.9942 0.41422,1.7398 1.15983,2.154 0.82844,0.3314 1.73974,0.5799 2.98241,0.5799 z"
     class="st1" /><path
     style="fill:#ffffff;fill-opacity:1;stroke-width:1"
     inkscape:connector-curvature="0"
     id="path3660"
     d="m 364.55336,1315.9261 c 0.57992,-0.6628 1.15983,-1.4084 1.73974,-2.154 0.57992,-0.7456 1.15983,-1.4912 1.73974,-2.3197 0.57992,-0.8284 1.07698,-1.574 1.57405,-2.3196 0.49707,-0.7456 0.9113,-1.4912 1.32552,-2.154 l 7.0418,0 c -0.57991,0.7456 -1.24267,1.4912 -1.98827,2.4025 -0.7456,0.8285 -1.49121,1.7398 -2.23681,2.6511 -0.7456,0.9112 -1.57405,1.7397 -2.31965,2.5681 -0.74561,0.8285 -1.49121,1.5741 -2.15397,2.3197 0.82845,0.7456 1.6569,1.6569 2.56819,2.7339 0.91129,1.077 1.82259,2.1539 2.73388,3.3138 0.91129,1.1598 1.73974,2.3196 2.48534,3.3966 0.7456,1.1598 1.32552,2.154 1.82259,3.0653 l -6.71043,0 c -0.41422,-0.8285 -0.91129,-1.6569 -1.49121,-2.6511 -0.57991,-0.9941 -1.24267,-1.9883 -1.98827,-2.9824 -0.66276,-0.9941 -1.40836,-1.9054 -2.15396,-2.7339 -0.74561,-0.9113 -1.40836,-1.574 -1.98828,-2.1539 l 0,10.6041 -5.88198,0 0,-32.0609 5.88198,-0.9942 0,19.4686 z"
     class="st1" /><path
     style="fill:#ffffff;fill-opacity:1;stroke-width:1"
     inkscape:connector-curvature="0"
     id="path3662"
     d="m 392.80343,1306.4818 c 1.82258,0 3.39663,0.2485 4.55646,0.6627 1.24267,0.4142 2.23681,0.9942 2.89956,1.8226 0.66276,0.8284 1.24268,1.7397 1.57405,2.8167 0.33138,1.1598 0.49707,2.4025 0.49707,3.8109 l 0,13.338 c -0.82844,0.1657 -2.15396,0.4142 -3.81086,0.6627 -1.65689,0.2486 -3.56232,0.4143 -5.63344,0.4143 -1.40836,0 -2.73388,-0.1657 -3.8937,-0.4143 -1.15983,-0.2485 -2.15397,-0.6627 -2.98241,-1.2426 -0.82845,-0.5799 -1.49121,-1.3255 -1.90543,-2.3197 -0.41423,-0.9113 -0.66276,-2.0711 -0.66276,-3.4795 0,-1.3255 0.24853,-2.4025 0.7456,-3.3137 0.49707,-0.9113 1.15983,-1.5741 2.07112,-2.154 0.82845,-0.5799 1.82258,-0.9113 2.98241,-1.1598 1.07698,-0.2486 2.23681,-0.3314 3.47948,-0.3314 1.49121,0 2.89957,0.1657 4.05939,0.4142 l 0,-0.7456 c 0,-1.077 -0.33137,-2.0711 -1.07698,-2.8167 -0.66276,-0.7456 -1.90543,-1.1598 -3.64517,-1.1598 -1.07698,0 -2.15396,0.083 -3.23094,0.2485 -0.99414,0.1657 -1.90543,0.3314 -2.48535,0.5799 l -0.82844,-4.7222 c 0.7456,-0.2485 1.73974,-0.497 3.06525,-0.6627 1.40836,-0.083 2.73388,-0.2485 4.22509,-0.2485 z m 0.49706,18.8057 c 0.66276,0 1.24268,0 1.82259,0 0.57991,0 1.15983,-0.083 1.57405,-0.083 l 0,-5.1364 c -0.41422,-0.083 -0.82845,-0.083 -1.40836,-0.1657 -0.57991,-0.083 -0.99414,-0.083 -1.49121,-0.083 -0.57991,0 -1.15982,0 -1.73974,0.083 -0.57991,0.083 -1.07698,0.2485 -1.4912,0.4142 -0.41423,0.1657 -0.74561,0.4971 -0.99414,0.8285 -0.24853,0.3314 -0.41422,0.8284 -0.41422,1.4083 0,0.9942 0.41422,1.7398 1.15982,2.154 0.74561,0.3314 1.73974,0.5799 2.98241,0.5799 z"
     class="st1" /><path
     style="fill:#ffffff;fill-opacity:1;stroke-width:1"
     inkscape:connector-curvature="0"
     id="path3664"
     d="m 423.37314,1306.8131 c 1.24267,0 2.23681,0.1657 3.06526,0.5799 0.82845,0.4143 1.40836,0.9113 1.90543,1.7398 0.49707,0.7456 0.7456,1.7397 0.91129,2.8996 0.16569,1.1598 0.24854,2.4853 0.24854,4.0593 l 0,13.4209 -4.72216,0 0,-13.6694 c 0,-0.9113 -0.0828,-1.574 -0.16569,-2.1539 -0.0828,-0.58 -0.24853,-0.9113 -0.41422,-1.2427 -0.16569,-0.2486 -0.41422,-0.4971 -0.57991,-0.5799 -0.24854,-0.083 -0.49707,-0.1657 -0.74561,-0.1657 -0.24853,0 -0.57991,0 -0.91129,0.083 -0.33138,0.083 -0.57991,0.1657 -0.82845,0.2486 0.0829,0.5799 0.16569,1.2426 0.24854,1.9882 0.0828,0.7456 0.0828,1.5741 0.0828,2.4025 l 0,4.4736 -4.72215,0 0,-5.1363 c 0,-1.4912 -0.16569,-2.5682 -0.41422,-3.231 -0.33138,-0.5799 -0.7456,-0.9113 -1.49121,-0.9113 -0.16569,0 -0.41422,0 -0.66276,0.083 -0.24853,0 -0.49706,0.083 -0.7456,0.1657 l 0,17.5631 -4.72215,0 0,-21.5397 c 1.24267,-0.3314 2.48534,-0.5799 3.64517,-0.8284 1.24267,-0.1657 2.23681,-0.2486 3.23095,-0.2486 0.82844,0 1.57405,0.083 2.2368,0.3314 0.66276,0.2485 1.24268,0.5799 1.6569,0.9942 0.57991,-0.3314 1.15983,-0.6628 1.90543,-0.9113 0.41422,-0.2486 1.24267,-0.4143 1.98827,-0.4143 z"
     class="st1" /><path
     style="fill:#ffffff;fill-opacity:1;stroke-width:1"
     inkscape:connector-curvature="0"
     id="path3666"
     d="m 444.16718,1306.4818 c 1.82258,0 3.39663,0.2485 4.55646,0.6627 1.24267,0.4142 2.23681,0.9942 2.89957,1.8226 0.66275,0.8284 1.24267,1.7397 1.57405,2.8167 0.33138,1.1598 0.49707,2.4025 0.49707,3.8109 l 0,13.338 c -0.82845,0.1657 -2.15397,0.4142 -3.81086,0.6627 -1.6569,0.2486 -3.56233,0.4143 -5.63345,0.4143 -1.40836,0 -2.73387,-0.1657 -3.8937,-0.4143 -1.15983,-0.2485 -2.15397,-0.6627 -2.98241,-1.2426 -0.82845,-0.5799 -1.49121,-1.3255 -1.90543,-2.3197 -0.41423,-0.9113 -0.66276,-2.0711 -0.66276,-3.4795 0,-1.3255 0.24853,-2.4025 0.7456,-3.3137 0.49707,-0.9113 1.15983,-1.5741 2.07112,-2.154 0.82845,-0.5799 1.82259,-0.9113 2.98241,-1.1598 1.07698,-0.2486 2.23681,-0.3314 3.47948,-0.3314 1.49121,0 2.89957,0.1657 4.0594,0.4142 l 0,-0.7456 c 0,-1.077 -0.33138,-2.0711 -1.07699,-2.8167 -0.66275,-0.7456 -1.90543,-1.1598 -3.64517,-1.1598 -1.07698,0 -2.15396,0.083 -3.23094,0.2485 -0.99414,0.1657 -1.90543,0.3314 -2.48534,0.5799 l -0.82845,-4.7222 c 0.7456,-0.2485 1.73974,-0.497 3.06525,-0.6627 1.49121,-0.083 2.81673,-0.2485 4.22509,-0.2485 z m 0.57991,18.8057 c 0.66276,0 1.24267,0 1.82259,0 0.57991,0 1.15982,-0.083 1.57405,-0.083 l 0,-5.1364 c -0.41423,-0.083 -0.82845,-0.083 -1.40836,-0.1657 -0.57992,-0.083 -0.99414,-0.083 -1.49121,-0.083 -0.57991,0 -1.15983,0 -1.73974,0.083 -0.57991,0.083 -1.07698,0.2485 -1.49121,0.4142 -0.41422,0.1657 -0.7456,0.4971 -0.99413,0.8285 -0.24854,0.3314 -0.41423,0.8284 -0.41423,1.4083 0,0.9942 0.41423,1.7398 1.15983,2.154 0.7456,0.3314 1.73974,0.5799 2.98241,0.5799 z"
     class="st1" /><path
     style="fill:#ffffff;fill-opacity:1;stroke-width:1"
     inkscape:connector-curvature="0"
     id="path3668"
     d="m 465.29259,1311.9495 -5.13637,0 0,-4.8878 5.13637,0 0,-5.6335 5.88198,-0.9941 0,6.5447 9.36146,0 0,4.8879 -9.36146,0 0,9.03 c 0,0.8285 0.0828,1.4913 0.24853,1.9883 0.16569,0.4971 0.41423,0.9113 0.66276,1.1598 0.24854,0.2486 0.66276,0.4971 1.07698,0.58 0.41423,0.083 0.9113,0.1656 1.40836,0.1656 0.57992,0 1.07699,0 1.49121,-0.083 0.49707,0 0.91129,-0.083 1.32552,-0.1657 0.41422,-0.083 0.91129,-0.1657 1.32551,-0.3314 0.49707,-0.1657 0.99414,-0.3313 1.49121,-0.5799 l 0.82845,5.0536 c -1.07699,0.4142 -2.23681,0.7456 -3.47948,0.9112 -1.24268,0.1657 -2.48535,0.2486 -3.64517,0.2486 -1.32552,0 -2.56819,-0.083 -3.64517,-0.3314 -1.07698,-0.2485 -1.90543,-0.6628 -2.65103,-1.3255 -0.74561,-0.6628 -1.32552,-1.4912 -1.6569,-2.651 -0.41422,-1.1599 -0.57991,-2.6511 -0.57991,-4.5565 l 0,-9.0301 z"
     class="st1" /><path
     style="fill:#ffffff;fill-opacity:1;stroke-width:1"
     inkscape:connector-curvature="0"
     id="path3670"
     d="m 495.03386,1325.039 c 1.40836,0 2.48534,-0.083 3.31379,-0.3314 0.7456,-0.1657 1.15983,-0.6628 1.15983,-1.2427 0,-0.4142 -0.0829,-0.7456 -0.33138,-1.0769 -0.24854,-0.2486 -0.57991,-0.4971 -0.99414,-0.7457 -0.41422,-0.1656 -0.91129,-0.4142 -1.4912,-0.5799 -0.57992,-0.1657 -1.15983,-0.4142 -1.73974,-0.5799 -0.82845,-0.2485 -1.73974,-0.5799 -2.65104,-0.9113 -0.91129,-0.3313 -1.73974,-0.7456 -2.40249,-1.2426 -0.74561,-0.4971 -1.32552,-1.1599 -1.82259,-1.9055 -0.49707,-0.7456 -0.7456,-1.7397 -0.7456,-2.8995 0,-0.9113 0.16569,-1.8226 0.57991,-2.6511 0.33138,-0.8284 0.91129,-1.574 1.73974,-2.2368 0.7456,-0.6627 1.73974,-1.1598 2.98241,-1.4912 1.24267,-0.3314 2.65104,-0.5799 4.30793,-0.5799 1.49121,0 2.81672,0.083 4.05939,0.3314 1.24268,0.2485 2.31966,0.5799 3.23095,0.9941 l -0.91129,4.9707 c -0.57992,-0.1657 -1.40836,-0.4142 -2.48535,-0.7456 -1.15982,-0.3314 -2.40249,-0.5799 -3.8937,-0.5799 -1.49121,0 -2.48534,0.1657 -3.06526,0.5799 -0.49706,0.3314 -0.7456,0.7456 -0.7456,1.1598 0,0.3314 0.0829,0.6628 0.33138,0.9113 0.24853,0.2486 0.57991,0.4971 0.91129,0.7456 0.41423,0.2486 0.82845,0.4142 1.40836,0.6628 0.49707,0.1657 1.07699,0.4142 1.6569,0.5799 0.82845,0.2485 1.73974,0.5799 2.65103,0.9941 0.91129,0.3314 1.73974,0.7456 2.48534,1.3255 0.74561,0.4971 1.32552,1.1599 1.82259,1.9883 0.49707,0.8285 0.7456,1.8226 0.7456,2.9824 0,0.9113 -0.16569,1.8226 -0.49707,2.6511 -0.33138,0.8284 -0.91129,1.574 -1.73974,2.1539 -0.82844,0.5799 -1.90543,1.077 -3.1481,1.4084 -1.32551,0.3314 -2.89956,0.4971 -4.80499,0.4971 -1.90543,0 -3.56233,-0.2486 -4.97069,-0.6628 -1.32552,-0.4142 -2.48534,-0.8284 -3.31379,-1.1598 l 0.91129,-4.8879 c 1.07698,0.4143 2.31966,0.8285 3.56233,1.2427 1.32551,0.1657 2.65103,0.3314 3.8937,0.3314 z"
     class="st1" /><path
     style="fill:#ffffff;fill-opacity:1;stroke-width:1"
     inkscape:connector-curvature="0"
     id="path3672"
     d="m 530.8228,1328.6842 c -1.07698,0.2485 -2.4025,0.5799 -3.89371,0.8284 -1.57405,0.2485 -3.23094,0.4142 -5.05353,0.4142 -1.82258,0 -3.31379,-0.2485 -4.55646,-0.7456 -1.15982,-0.497 -2.07112,-1.2426 -2.81672,-2.1539 -0.66276,-0.9113 -1.15983,-2.0712 -1.40836,-3.3138 -0.24854,-1.2427 -0.41422,-2.6511 -0.41422,-4.2251 l 0,-12.5096 5.88197,0 0,11.6811 c 0,2.0712 0.24854,3.5624 0.74561,4.5565 0.49706,0.9941 1.4912,1.4912 2.89956,1.4912 0.91129,0 1.73974,-0.083 2.65103,-0.2485 l 0,-17.5631 5.88198,0 0,21.7882 z"
     class="st1" /><path
     style="fill:#ffffff;fill-opacity:1;stroke-width:1"
     inkscape:connector-curvature="0"
     id="path3674"
     d="m 541.67546,1332.9092 c 0.57991,-0.1657 1.15983,-0.2485 1.73974,-0.3313 0.57991,-0.083 1.15983,-0.2486 1.6569,-0.4143 0.49707,-0.1657 0.99413,-0.497 1.40836,-0.8284 0.41422,-0.3314 0.7456,-0.8285 0.99413,-1.4084 -1.24267,-0.1657 -2.15396,-0.5799 -2.81672,-1.4083 -0.66276,-0.8285 -0.99413,-1.7398 -0.99413,-2.7339 0,-1.2427 0.41422,-2.2368 1.24267,-3.0653 0.82844,-0.8284 1.82258,-1.1598 3.06525,-1.1598 1.32552,0 2.4025,0.4142 3.1481,1.3255 0.74561,0.9113 1.15983,2.0711 1.15983,3.6452 0,1.077 -0.16569,2.2368 -0.49707,3.3138 -0.33138,1.077 -0.91129,2.1539 -1.65689,3.0652 -0.74561,0.9942 -1.82259,1.7398 -3.06526,2.4854 -1.24267,0.6627 -2.73388,1.1598 -4.55646,1.4083 l -0.82845,-3.8937 z"
     class="st1" /><path
     style="fill:#ffffff;fill-opacity:1;stroke-width:1"
     inkscape:connector-curvature="0"
     id="path3676"
     d="m 591.7137,1319.5712 c 0,1.4084 -0.16569,2.8168 -0.57992,4.0594 -0.33138,1.2427 -0.99413,2.4025 -1.82258,3.3138 -0.82845,0.9942 -1.90543,1.7398 -3.23095,2.2368 -1.32551,0.5799 -2.98241,0.8285 -4.88784,0.8285 -1.98827,0 -3.64517,-0.2486 -4.97068,-0.7456 -1.32552,-0.4971 -2.48535,-1.1599 -3.39664,-1.8226 l 2.23681,-4.6393 c 0.82845,0.497 1.6569,0.9941 2.65103,1.4912 0.99414,0.497 1.98828,0.7456 2.98241,0.7456 1.49121,0 2.73388,-0.4142 3.72802,-1.2427 0.91129,-0.8284 1.40836,-2.3196 1.40836,-4.4736 l 0,-14.415 -9.85853,0 0,-4.8878 15.74051,0 0,19.5513 z"
     class="st1" /><path
     style="fill:#ffffff;fill-opacity:1;stroke-width:1"
     inkscape:connector-curvature="0"
     id="path3678"
     d="m 608.03411,1306.4818 c 1.82259,0 3.39664,0.2485 4.55647,0.6627 1.24267,0.4142 2.23681,0.9942 2.89956,1.8226 0.74561,0.7456 1.24267,1.7397 1.57405,2.8167 0.33138,1.1598 0.49707,2.4025 0.49707,3.8109 l 0,13.338 c -0.82845,0.1657 -2.15396,0.4142 -3.81086,0.6627 -1.65689,0.2486 -3.56232,0.4143 -5.63344,0.4143 -1.40836,0 -2.73388,-0.1657 -3.8937,-0.4143 -1.15983,-0.2485 -2.15397,-0.6627 -2.98242,-1.2426 -0.82844,-0.5799 -1.4912,-1.3255 -1.90542,-2.3197 -0.41423,-0.9113 -0.66276,-2.0711 -0.66276,-3.4795 0,-1.3255 0.24853,-2.4025 0.7456,-3.3137 0.49707,-0.9113 1.15983,-1.5741 2.07112,-2.154 0.91129,-0.5799 1.82258,-0.9113 2.98241,-1.1598 1.07698,-0.2486 2.23681,-0.3314 3.47948,-0.3314 1.49121,0 2.89957,0.1657 4.05939,0.4142 l 0,-0.7456 c 0,-1.077 -0.33138,-2.0711 -1.07698,-2.8167 -0.66276,-0.7456 -1.90543,-1.1598 -3.64517,-1.1598 -1.07698,0 -2.15396,0.083 -3.23094,0.2485 -0.99414,0.1657 -1.90543,0.3314 -2.48535,0.5799 l -0.82844,-4.7222 c 0.7456,-0.2485 1.73974,-0.497 3.06525,-0.6627 1.40836,-0.083 2.81672,-0.2485 4.22508,-0.2485 z m 0.49707,18.8057 c 0.66276,0 1.24267,0 1.82259,0 0.57991,0 1.15982,-0.083 1.57405,-0.083 l 0,-5.1364 c -0.41423,-0.083 -0.82845,-0.083 -1.40836,-0.1657 -0.57992,-0.083 -0.99414,-0.083 -1.49121,-0.083 -0.57991,0 -1.15982,0 -1.73974,0.083 -0.57991,0.083 -1.07698,0.2485 -1.4912,0.4142 -0.41423,0.1657 -0.74561,0.4971 -0.99414,0.8285 -0.24853,0.3314 -0.41422,0.8284 -0.41422,1.4083 0,0.9942 0.41422,1.7398 1.15982,2.154 0.82845,0.3314 1.82259,0.5799 2.98241,0.5799 z"
     class="st1" /><path
     style="fill:#ffffff;fill-opacity:1;stroke-width:1"
     inkscape:connector-curvature="0"
     id="path3680"
     d="m 644.6515,1318.2457 c 0,1.7398 -0.16569,3.3138 -0.57991,4.7222 -0.41423,1.4083 -0.9113,2.651 -1.6569,3.728 -0.7456,0.9941 -1.65689,1.8226 -2.73388,2.4025 -1.07698,0.5799 -2.40249,0.8284 -3.8937,0.8284 -1.49121,0 -3.06526,-0.3314 -4.63931,-1.077 l 0,8.4502 -5.88197,0 0,-29.4927 c 1.07698,-0.3314 2.40249,-0.6628 3.97654,-0.8285 1.57405,-0.2485 3.1481,-0.3314 4.63931,-0.3314 3.47948,0 6.13051,1.077 7.9531,3.1481 1.90543,2.0712 2.81672,4.8879 2.81672,8.4502 z m -5.96482,0.2485 c 0,-1.9882 -0.41423,-3.6451 -1.15983,-4.8878 -0.82845,-1.3255 -1.98827,-1.9054 -3.64517,-1.9054 -0.41422,0 -0.91129,0 -1.40836,0.083 -0.49707,0.083 -0.91129,0.083 -1.32552,0.083 l 0,12.261 c 0.41423,0.2485 0.9113,0.4971 1.49121,0.5799 0.66276,0.1657 1.24267,0.2485 1.90543,0.2485 1.40836,0 2.4025,-0.5799 3.06525,-1.6569 0.74561,-1.1598 1.07699,-2.7338 1.07699,-4.805 z"
     class="st1" /><path
     style="fill:#ffffff;fill-opacity:1;stroke-width:1"
     inkscape:connector-curvature="0"
     id="path3682"
     d="m 659.48071,1306.4818 c 1.82259,0 3.39664,0.2485 4.55646,0.6627 1.24267,0.4142 2.23681,0.9942 2.89957,1.8226 0.7456,0.7456 1.24267,1.7397 1.57405,2.8167 0.33138,1.1598 0.49707,2.4025 0.49707,3.8109 l 0,13.338 c -0.82845,0.1657 -2.15396,0.4142 -3.81086,0.6627 -1.6569,0.2486 -3.56232,0.4143 -5.63344,0.4143 -1.40836,0 -2.73388,-0.1657 -3.89371,-0.4143 -1.15982,-0.2485 -2.15396,-0.6627 -2.98241,-1.2426 -0.82845,-0.5799 -1.4912,-1.3255 -1.90543,-2.3197 -0.41422,-0.9113 -0.66276,-2.0711 -0.66276,-3.4795 0,-1.3255 0.24854,-2.4025 0.74561,-3.3137 0.49706,-0.9113 1.15982,-1.5741 2.07112,-2.154 0.91129,-0.5799 1.82258,-0.9113 2.98241,-1.1598 1.07698,-0.2486 2.23681,-0.3314 3.47948,-0.3314 1.4912,0 2.89956,0.1657 4.05939,0.4142 l 0,-0.7456 c 0,-1.077 -0.33138,-2.0711 -1.07698,-2.8167 -0.66276,-0.7456 -1.90543,-1.1598 -3.64517,-1.1598 -1.07698,0 -2.15397,0.083 -3.23095,0.2485 -0.99413,0.1657 -1.90543,0.3314 -2.48534,0.5799 l -0.82845,-4.7222 c 0.74561,-0.2485 1.73974,-0.497 3.06526,-0.6627 1.40836,-0.083 2.81672,-0.2485 4.22508,-0.2485 z m 0.49707,18.8057 c 0.66276,0 1.24267,0 1.82258,0 0.57992,0 1.15983,-0.083 1.57406,-0.083 l 0,-5.1364 c -0.41423,-0.083 -0.82845,-0.083 -1.40837,-0.1657 -0.57991,-0.083 -0.99413,-0.083 -1.4912,-0.083 -0.57991,0 -1.15983,0 -1.73974,0.083 -0.57991,0.083 -1.07698,0.2485 -1.49121,0.4142 -0.41422,0.1657 -0.7456,0.4971 -0.99413,0.8285 -0.24854,0.3314 -0.41423,0.8284 -0.41423,1.4083 0,0.9942 0.41423,1.7398 1.15983,2.154 0.82845,0.3314 1.82258,0.5799 2.98241,0.5799 z"
     class="st1" /><path
     style="fill:#ffffff;fill-opacity:1;stroke-width:1"
     inkscape:connector-curvature="0"
     id="path3684"
     d="m 676.79527,1307.8073 c 1.07698,-0.2486 2.31965,-0.5799 3.8937,-0.8285 1.57405,-0.2485 3.23095,-0.4142 5.05353,-0.4142 1.73974,0 3.23095,0.2485 4.39077,0.7456 1.15983,0.4971 2.07112,1.1598 2.81672,2.0711 0.66276,0.9113 1.15983,1.9883 1.49121,3.231 0.24853,1.2426 0.41422,2.651 0.41422,4.1422 l 0,12.5924 -5.88197,0 0,-11.8468 c 0,-2.0711 -0.24854,-3.5623 -0.74561,-4.5565 -0.49706,-0.9112 -1.40836,-1.4083 -2.89956,-1.4083 -0.41423,0 -0.9113,0 -1.32552,0.083 -0.41422,0 -0.91129,0.083 -1.32552,0.1657 l 0,17.5631 -5.88197,0 0,-21.5396 z"
     class="st1" /><path
     style="fill:#ffffff;fill-opacity:1;stroke-width:1"
     inkscape:connector-curvature="0"
     id="path3686"
     d="m 730.64436,1307.7244 c 0,0.9942 -0.16569,1.9883 -0.57991,2.8996 -0.41423,0.9113 -0.91129,1.8226 -1.49121,2.7339 -0.57991,0.9113 -1.32551,1.7397 -2.15396,2.5682 -0.82845,0.8284 -1.57405,1.6569 -2.4025,2.4025 -0.41422,0.4142 -0.91129,0.8284 -1.40836,1.3255 -0.57991,0.497 -1.07698,1.077 -1.49121,1.6569 -0.49706,0.5799 -0.91129,1.1598 -1.24267,1.6569 -0.33138,0.5799 -0.49707,1.0769 -0.49707,1.574 l 12.67525,0 0,4.8879 -19.21998,0 c -0.0828,-0.3314 -0.16569,-0.7456 -0.0828,-1.1599 0,-0.497 0,-0.8284 0,-0.9941 0,-1.5741 0.33138,-3.0653 0.9113,-4.3908 0.57991,-1.3255 1.32551,-2.5682 2.2368,-3.728 0.9113,-1.1598 1.90543,-2.154 2.89957,-3.1481 0.99414,-0.9941 1.98827,-1.9054 2.89957,-2.8167 0.91129,-0.9113 1.65689,-1.7398 2.23681,-2.5682 0.57991,-0.8285 0.91129,-1.6569 0.91129,-2.4853 0,-1.2427 -0.33138,-2.154 -1.07698,-2.8168 -0.74561,-0.6627 -1.6569,-0.9941 -2.73388,-0.9941 -0.91129,0 -1.90543,0.2485 -2.89957,0.6628 -0.99413,0.4142 -1.98827,1.1598 -2.98241,2.2368 l -2.89957,-4.0594 c 1.24268,-1.3255 2.73388,-2.3197 4.39078,-2.9824 1.65689,-0.6628 3.31379,-0.9942 4.97068,-0.9942 1.24267,0 2.4025,0.1657 3.47948,0.4971 1.07698,0.3314 2.07112,0.9113 2.98241,1.574 0.82845,0.6628 1.57405,1.5741 2.07112,2.6511 0.24854,1.2426 0.49707,2.4025 0.49707,3.8108 z"
     class="st1" /><path
     style="fill:#ffffff;fill-opacity:1;stroke-width:1"
     inkscape:connector-curvature="0"
     id="path3688"
     d="m 757.81744,1314.6834 c 0,5.2192 -0.91129,9.1129 -2.65103,11.5983 -1.73974,2.5681 -4.30793,3.8108 -7.62172,3.8108 -3.31379,0 -5.88198,-1.2427 -7.62172,-3.8108 -1.73974,-2.5682 -2.65103,-6.3791 -2.65103,-11.5983 0,-5.1364 0.91129,-8.9472 2.65103,-11.5154 1.73974,-2.5682 4.30793,-3.8109 7.53888,-3.8109 3.31379,0 5.88198,1.2427 7.62172,3.8109 1.82258,2.4853 2.73387,6.2962 2.73387,11.5154 z m -5.30206,0 c 0,-3.3966 -0.41423,-5.9648 -1.24267,-7.7046 -0.82845,-1.7397 -2.07112,-2.651 -3.72802,-2.651 -1.57405,0 -2.81672,0.9113 -3.64517,2.651 -0.82844,1.7398 -1.32551,4.308 -1.32551,7.7046 0,3.3966 0.41422,5.9648 1.32551,7.7046 0.82845,1.7397 2.07112,2.651 3.64517,2.651 1.6569,0 2.81672,-0.9113 3.72802,-2.651 0.82844,-1.7398 1.24267,-4.308 1.24267,-7.7046 z m -2.23681,-0.4971 c 0,0.8285 -0.24853,1.5741 -0.7456,2.2368 -0.49707,0.5799 -1.15983,0.9113 -1.90543,0.9113 -0.82845,0 -1.49121,-0.3314 -1.98828,-0.9113 -0.49707,-0.5799 -0.7456,-1.3255 -0.7456,-2.2368 0,-0.8284 0.24853,-1.574 0.7456,-2.2368 0.49707,-0.6627 1.15983,-0.9113 1.98828,-0.9113 0.7456,0 1.40836,0.3314 1.90543,0.9113 0.49707,0.6628 0.7456,1.4084 0.7456,2.2368 z"
     class="st1" /><path
     style="fill:#ffffff;fill-opacity:1;stroke-width:1"
     inkscape:connector-curvature="0"
     id="path3690"
     d="m 771.56967,1324.6248 0,-16.4861 c -0.91129,0.6627 -1.90543,1.1598 -3.06525,1.6568 -1.15983,0.4971 -2.07112,0.9113 -2.89957,1.1599 l -1.90543,-4.8879 c 0.7456,-0.2485 1.57405,-0.6627 2.48534,-1.0769 0.9113,-0.4143 1.73974,-0.9113 2.65104,-1.4913 0.91129,-0.5799 1.73974,-1.0769 2.48534,-1.7397 0.82845,-0.5799 1.4912,-1.2427 2.07112,-1.8226 l 3.97655,0 0,24.6049 5.88197,0 0,4.8879 -17.89446,0 0,-4.8879 6.21335,0 z"
     class="st1" /><path
     style="fill:#ffffff;fill-opacity:1;stroke-width:1"
     inkscape:connector-curvature="0"
     id="path3692"
     d="m 793.35785,1329.4298 c 0.0828,-2.0712 0.41422,-4.1423 0.99413,-6.4619 0.57992,-2.2368 1.24267,-4.5565 2.07112,-6.7105 0.82845,-2.2368 1.6569,-4.3079 2.65103,-6.2962 0.99414,-1.9882 1.82259,-3.728 2.73388,-5.1363 l -12.34387,0 0,-4.8879 19.21999,0 0,4.3908 c -0.82845,0.9941 -1.82259,2.4025 -2.81673,4.1422 -0.99413,1.7398 -1.98827,3.8109 -2.89956,6.0477 -0.91129,2.2368 -1.73974,4.6393 -2.4025,7.2075 -0.66276,2.5682 -1.07698,5.1364 -1.24267,7.6217 l -5.96482,0 z"
     class="st1" /></svg>