<?xml version="1.0" encoding="utf-8"?>
<!-- Generator: Adobe Illustrator 21.0.0, SVG Export Plug-In . SVG Version: 6.00 Build 0)  -->
<svg version="1.1" id="Layer_1" xmlns="http://www.w3.org/2000/svg" xmlns:xlink="http://www.w3.org/1999/xlink" x="0px" y="0px"
	 viewBox="0 0 1080 1920" style="enable-background:new 0 0 1080 1920;" xml:space="preserve">
<style type="text/css">
	.st0{fill:#FFFFFF;}
	.st1{fill:#D81B60;}
	.st2{clip-path:url(#SVGID_2_);fill:#FFFFFF;}
	.st3{fill:none;stroke:#FFFFFF;stroke-width:5;stroke-miterlimit:10;}
</style>
<path class="st0" d="M872.9,643.6c-0.9-26.3-4.9-51.8-11.5-76.2L586.6,408.7c0.2-1.6,0.3-3.3,0.3-4.9c0-13.5-5.7-25.7-14.8-34.3
	l3-46.3c-11.9-1.3-24-2-36.3-2c-12.1,0-24.1,0.7-36,1.9l3.1,47.6c-8.4,8.5-13.6,20.2-13.6,33.1c0,1.6,0.1,3.2,0.2,4.7L216,568.3
	c-6.6,24.4-10.5,49.9-11.3,76.1l334.8-193.3L872.9,643.6z M517.1,403.8c0-12.4,10.1-22.4,22.4-22.4c12.4,0,22.4,10.1,22.4,22.4
	c0,12.4-10.1,22.4-22.4,22.4C527.2,426.3,517.1,416.2,517.1,403.8"/>
<path class="st0" d="M553.7,403.8c0-7.8-6.4-14.2-14.2-14.2c-7.8,0-14.2,6.4-14.2,14.2s6.4,14.2,14.2,14.2
	C547.4,418,553.7,411.6,553.7,403.8"/>
<g>
	<path class="st1" d="M572.1,369.5c9.1,8.6,14.8,20.8,14.8,34.3c0,1.7-0.1,3.3-0.3,4.9l274.7,158.6
		C825.7,436.8,713,338.1,575.1,323.2L572.1,369.5z"/>
	<path class="st1" d="M539.5,426.3c12.4,0,22.4-10.1,22.4-22.4c0-12.4-10.1-22.4-22.4-22.4c-12.4,0-22.4,10.1-22.4,22.4
		C517.1,416.2,527.2,426.3,539.5,426.3z"/>
	<path class="st1" d="M872.8,643.6L539.4,451.1L204.7,644.4c-0.1,3.7-0.2,7.4-0.2,11.2c0,184.6,149.7,334.3,334.3,334.3
		c184.6,0,334.3-149.7,334.3-334.3C873.1,651.5,873,647.5,872.8,643.6z"/>
	<path class="st1" d="M492.6,408.6c-0.2-1.6-0.2-3.1-0.2-4.7c0-12.9,5.2-24.6,13.6-33.1l-3.1-47.5
		c-138.4,14.8-251.5,114-286.8,245.1L492.6,408.6z"/>
</g>
<path class="st0" d="M553.7,403.8c0-7.8-6.4-14.2-14.2-14.2c-7.8,0-14.2,6.4-14.2,14.2s6.4,14.2,14.2,14.2
	C547.4,418,553.7,411.6,553.7,403.8"/>
<g>
	<defs>
		<path id="SVGID_1_" d="M204.5,655.5c0,184.6,149.7,334.3,334.3,334.3c184.6,0,334.3-149.7,334.3-334.3S723.4,321.2,538.8,321.2
			C354.1,321.2,204.5,470.9,204.5,655.5"/>
	</defs>
	<clipPath id="SVGID_2_">
		<use xlink:href="#SVGID_1_"  style="overflow:visible;"/>
	</clipPath>
	<rect x="332.2" y="830.8" class="st2" width="413.5" height="60.2"/>
	<rect x="332.2" y="733.2" class="st2" width="413.5" height="60.2"/>
	<rect x="411.4" y="538.3" class="st2" width="255.2" height="60.2"/>
	<rect x="331.6" y="635.8" class="st2" width="60.2" height="60.2"/>
	<rect x="449.8" y="635.8" class="st2" width="60.2" height="60.2"/>
	<rect x="567.9" y="635.8" class="st2" width="60.2" height="60.2"/>
	<rect x="686" y="635.8" class="st2" width="60.2" height="60.2"/>
</g>
<path class="st1" d="M537.1,1045.8c-52.9,0-104.2-10.4-152.5-30.8c-46.7-19.7-88.6-48-124.6-84c-36-36-64.2-77.9-84-124.6
	c-20.4-48.3-30.8-99.7-30.8-152.5c0-52.9,10.4-104.2,30.8-152.5c19.7-46.7,48-88.6,84-124.6c36-36,77.9-64.2,124.6-84
	c48.3-20.4,99.7-30.8,152.5-30.8s104.2,10.4,152.5,30.8c46.7,19.7,88.6,48,124.6,84c36,36,64.2,77.9,84,124.6
	C918.7,549.7,929,601,929,653.9c0,52.9-10.4,104.2-30.8,152.5c-19.7,46.7-48,88.6-84,124.6c-36,36-77.9,64.2-124.6,84
	C641.4,1035.4,590,1045.8,537.1,1045.8 M537.1,299.2c-47.9,0-94.3,9.4-138.1,27.9c-42.2,17.9-80.2,43.4-112.7,76
	s-58.2,70.5-76,112.7c-18.5,43.7-27.9,90.2-27.9,138.1c0,47.9,9.4,94.3,27.9,138.1c17.9,42.2,43.4,80.2,76,112.7s70.5,58.2,112.7,76
	c43.7,18.5,90.2,27.9,138.1,27.9c47.9,0,94.3-9.4,138.1-27.9c42.2-17.9,80.2-43.4,112.7-76c32.6-32.6,58.2-70.5,76-112.7
	c18.5-43.7,27.9-90.2,27.9-138.1c0-47.9-9.4-94.3-27.9-138.1c-17.9-42.2-43.4-80.2-76-112.7c-32.6-32.6-70.5-58.2-112.7-76
	C631.5,308.6,585,299.2,537.1,299.2"/>
<path class="st1" d="M225,1303.8c0,29.4-20,37.7-40.5,37.7c-14.6,0-31.7-3.5-39.5-7.2l6.9-25c8.6,4.3,21.4,8,31.2,8
	c6.2,0,14.1-2.4,14.1-11.8c0-7-5.6-11.8-20.8-18.6c-17-7.5-28.8-14.7-28.8-35.5c0-30.4,25-36.6,40-36.6c14.1,0,26.1,2.6,33.8,5.8
	l-7.4,23.7c-7.8-3.7-16.6-5.9-23.4-5.9c-6.6,0-15.8,1.3-15.8,11.5c0,6.2,7.7,10.1,17.1,14.7C208.8,1272.9,225,1281.3,225,1303.8z"/>
<path class="st1" d="M334.9,1216.6v23.7h-30.6v99.2h-27.5v-99.2h-30.6v-23.7H334.9z"/>
<path class="st1" d="M825,1504h-30.2l-9.6-27h-42.5l-9.3,27h-27.7l47-122.8h25.3L825,1504z M779.2,1455.9l-14.9-44.8l-15,44.8H779.2
	z"/>
<path class="st1" d="M457.3,1339.5h-30.2l-9.6-27h-42.5l-9.3,27H338l47-122.8h25.3L457.3,1339.5z M411.6,1291.3l-14.9-44.8l-15,44.8
	H411.6z"/>
<path class="st1" d="M546.1,1216.6v23.7h-30.6v99.2h-27.5v-99.2h-30.6v-23.7H546.1z"/>
<path class="st1" d="M643.7,1315.8v23.7h-72.6v-122.8h69.7v23.7H598v25.4h37.1v22.7H598v27.4H643.7z"/>
<path class="st1" d="M831.9,1277.7c0,29.1-12.6,65.1-59,65.1s-59-36-59-65.3c0-28.5,12.6-63.8,59-63.8S831.9,1249.1,831.9,1277.7z
	 M802.6,1277.3c0-29.9-12.5-39.5-29.8-39.5c-17.3,0-29.8,9.6-29.8,39.5c0,30.6,12.5,41.1,29.8,41.1
	C790.1,1318.4,802.6,1307.8,802.6,1277.3z"/>
<path class="st1" d="M888,1240.3v27.7h37.3v23.7H888v47.8h-27.2v-122.8h68.8v23.7H888z"/>
<path class="st1" d="M232.6,1381.9v23.4h-30.2v98h-27.2v-98H145v-23.4H232.6z"/>
<path class="st1" d="M363.8,1381.9v121.4h-27.2V1453h-48.7v50.3h-27.2v-121.4h27.2v47.7h48.7v-47.7H363.8z"/>
<path class="st1" d="M466.6,1479.9v23.4h-71.8v-121.4h68.9v23.4h-42.4v25.1h36.7v22.5h-36.7v27H466.6z"/>
<path class="st1" d="M687.1,1503.3h-27.4l-3.5-88.5l-25.9,82.9h-23.7l-26.1-82.9l-2.7,88.5h-25.8l6.3-121.4h35.9l25.1,81.4
	l24.2-81.4h37.2L687.1,1503.3z"/>
<path class="st1" d="M929.6,1420.3c0,30.7-20.4,43-42.5,43h-16.4v40h-27.2v-121.4h34.8C906.8,1381.9,929.6,1390.6,929.6,1420.3z
	 M901.9,1422c0-10.4-7.1-16.8-22.8-16.8h-8.5v35.6h9.2C895.1,1440.9,901.9,1436.3,901.9,1422z"/>
<path class="st3" d="M396.2,1217.3"/>
<g>
	<path class="st1" d="M201.4,1181.1l-3.2,2.2c-4.8-6.1-12.2-13.5-18.3-18.6c-6.4,7.7-14.4,14.3-22.8,18.6l-2.3-3
		c16.3-7.7,30.1-24.8,34.2-38h-30.6v-3.3h32.7l2.5,1.4c-2.3,7.4-6.4,14.9-11.5,21.6C188.6,1167.5,196.1,1174.9,201.4,1181.1z"/>
	<path class="st1" d="M269.7,1155.1h-20.3c-0.3,13.2-3.7,21.6-16.7,28.5l-2.7-2.8c12.5-6.1,15.5-13.2,15.7-25.7h-24.3v-3.3h48.2
		V1155.1z M263.2,1140.8h-35.1v-3.3h35.1V1140.8z"/>
	<path class="st1" d="M317.2,1150.4v33h-3.7v-30.3c-7.2,5-14.8,9.3-21.6,11.9l-1.9-3.2c14.1-5,33.3-18.7,40.8-28.6l2.9,2.2
		C329.8,1140.1,323.9,1145.4,317.2,1150.4z"/>
	<path class="st1" d="M390.7,1167.7c-6.6-4.7-17.1-10.5-25.1-14.2v29.9h-3.7V1133h3.7v16.6c8.3,3.8,19.9,10.1,27.5,15.2
		L390.7,1167.7z"/>
	<path class="st1" d="M427.5,1158.2c0,1.9-1.6,3.5-3.5,3.5s-3.5-1.6-3.5-3.5s1.6-3.5,3.5-3.5S427.5,1156.3,427.5,1158.2z"/>
	<path class="st1" d="M502,1148.9h-15.4v26.7c0,5.1-1.9,7.9-7.3,7.9c-2.5,0-5.2-0.1-7.8-0.5v-3.5c2.3,0.4,5,0.5,7.1,0.5
		c3.2,0,4.4-1.5,4.4-4.6v-22.2c-6.2,9-16.8,18.7-25.9,24.4l-2.5-2.7c9.5-5.4,21.6-16.7,27-25.9H455v-3.4h28V1133h3.6v12.5H502
		V1148.9z"/>
	<path class="st1" d="M561.9,1140.4l2.8,1.5c-4.2,18.4-13.8,33.1-32.6,41.3l-2.4-2.9c18-7.5,27.1-20.9,30.7-36.6h-37.8v-3.4H561.9z
		 M560.8,1131.3c2.4,2.5,4.5,5.4,6.3,8.5l-2,1.3c-1.7-3-3.9-6-6.2-8.5L560.8,1131.3z M573.5,1137.3l-2,1.2c-1.7-3-3.9-6-6.2-8.5
		l1.9-1.3C569.6,1131.2,571.6,1134.2,573.5,1137.3z"/>
	<path class="st1" d="M604.3,1158.2c0,1.9-1.6,3.5-3.5,3.5c-1.9,0-3.5-1.6-3.5-3.5s1.6-3.5,3.5-3.5
		C602.7,1154.7,604.3,1156.3,604.3,1158.2z"/>
	<path class="st1" d="M669.7,1145h11.2v3.3h-11.2v6.6c0,13.6-5.1,22.3-19,28.7l-2.3-3c13.4-5.6,17.7-13.6,17.7-25.4v-6.9h-20.8v15.6
		h-3.5v-15.6h-11.2v-3.3h11.2v-11.9h3.5v11.9h20.8v-12h3.6V1145z M678,1142.7c-1.7-3-3.8-6-6-8.3l1.7-1.4c2.3,2.5,4.4,5.4,6.1,8.4
		L678,1142.7z M685.2,1137.3l-1.9,1.3c-1.7-3-3.7-5.9-6-8.3l1.7-1.3C681.3,1131.5,683.4,1134.3,685.2,1137.3z"/>
	<path class="st1" d="M716,1158.2c0,1.9-1.6,3.5-3.5,3.5c-1.9,0-3.5-1.6-3.5-3.5s1.6-3.5,3.5-3.5
		C714.4,1154.7,716,1156.3,716,1158.2z"/>
	<path class="st1" d="M768.2,1169.7c3.7,3.8,7.2,7.6,9.6,10.6l-3,2.3c-5.1-6.9-16.6-18.4-24.1-24.2l2.5-2.4c3.8,3,8.2,7,12.5,11.2
		c7.3-6.9,16.3-17,21-24.2h-43v-3.4h45.6l3,2.1C785.9,1151.2,776.1,1162.3,768.2,1169.7z"/>
	<path class="st1" d="M820.6,1164l-2.9,1.2c-1-3.6-3.3-8.9-5.5-12.3l2.8-1.3C817.2,1155.4,819.3,1160.2,820.6,1164z M845.9,1151.2
		c-2.5,14.2-10.7,26.1-23.7,32l-2.1-2.8c12.9-5.4,20.4-16.4,22.6-30L845.9,1151.2z M828.2,1163c-0.9-3.7-3-9-4.9-12.6l2.8-1.2
		c2.1,3.9,3.9,8.8,5,12.6L828.2,1163z"/>
	<path class="st1" d="M908.2,1140.6l2.8,1.5c-4.2,18.4-13.7,32.9-32.5,41.1l-2.5-2.9c18-7.5,27.2-20.7,30.7-36.4H869v-3.4H908.2z
		 M919.8,1134.9c0,3.4-2.7,6.1-6.1,6.1c-3.4,0-6.1-2.8-6.1-6.1s2.7-6.1,6.1-6.1C917.1,1128.8,919.8,1131.5,919.8,1134.9z
		 M918.2,1134.9c0-2.5-2-4.5-4.5-4.5c-2.5,0-4.5,2-4.5,4.5c0,2.5,2,4.6,4.5,4.6C916.2,1139.5,918.2,1137.4,918.2,1134.9z"/>
</g>
<g>
	<path class="st1" d="M175.7,1569.8l-1.7-8.2h-9.5l-1.6,8.2h-7.4c1.7-7,3.4-13.4,5.1-19.2s3.4-11.2,5-16.4h7.7
		c1.7,5.2,3.4,10.7,5,16.6s3.3,12.2,4.9,19H175.7z M169.3,1541.2c-0.4,1.3-0.7,2.6-1.1,3.8c-0.3,1.2-0.6,2.4-0.9,3.6
		c-0.3,1.2-0.6,2.3-0.8,3.5c-0.2,1.2-0.5,2.4-0.7,3.7h7c-0.2-1.3-0.5-2.5-0.7-3.7c-0.2-1.2-0.5-2.4-0.8-3.5
		c-0.3-1.2-0.6-2.4-0.9-3.6C170.1,1543.8,169.7,1542.5,169.3,1541.2z"/>
	<path class="st1" d="M212.9,1568.7c-1.5,0.7-2.8,1.2-4.1,1.4c-1.3,0.2-2.5,0.4-3.5,0.4c-1.8,0-3.4-0.3-4.6-0.8
		c-1.2-0.5-2.2-1.3-3-2.3c-0.7-1-1.3-2.3-1.6-3.7c-0.3-1.5-0.5-3.1-0.5-5v-9.9h-7.5v-5.9h14.5v16.7c0,1.6,0.3,2.8,0.9,3.6
		c0.6,0.8,1.6,1.2,3,1.2c0.7,0,1.4-0.1,2.4-0.3c0.9-0.2,2-0.5,3.1-1.1L212.9,1568.7z M202.4,1535.1c0,1.4-0.4,2.5-1.3,3.3
		c-0.9,0.8-1.9,1.2-3.2,1.2c-1.2,0-2.3-0.4-3.1-1.2c-0.9-0.8-1.3-1.9-1.3-3.3c0-1.4,0.4-2.5,1.3-3.3c0.9-0.8,1.9-1.2,3.1-1.2
		c1.2,0,2.3,0.4,3.2,1.2C201.9,1532.5,202.4,1533.6,202.4,1535.1z"/>
	<path class="st1" d="M241.6,1548c-0.5,0.6-1.3,1.5-2.3,2.7c-1,1.2-2.1,2.6-3.2,4.1c-1.2,1.5-2.3,3.1-3.5,4.7
		c-1.2,1.6-2.2,3.1-3.1,4.5h12.8v5.9H221v-4.3c0.9-1.5,1.8-3,2.9-4.5c1-1.5,2.1-3,3.1-4.5c1-1.5,2-2.9,3-4.2c1-1.3,1.9-2.5,2.7-3.6
		h-11.2v-5.9h20.1V1548z"/>
	<path class="st1" d="M273.3,1568.9c-1.3,0.3-2.9,0.7-4.7,1c-1.9,0.3-3.9,0.5-6.1,0.5c-2.2,0-4-0.3-5.5-0.9
		c-1.4-0.6-2.5-1.5-3.4-2.6c-0.8-1.1-1.4-2.5-1.7-4c-0.3-1.5-0.5-3.2-0.5-5.1v-15.1h7.1v14.1c0,2.5,0.3,4.3,0.9,5.5
		c0.6,1.2,1.8,1.8,3.5,1.8c1.1,0,2.1-0.1,3.2-0.3v-21.2h7.1V1568.9z"/>
	<path class="st1" d="M285.7,1551.6h15.8v7h-15.8V1551.6z"/>
	<path class="st1" d="M327.2,1546.9c0.2,0.7,0.4,1.6,0.7,2.7c0.3,1.1,0.6,2.3,1,3.6c0.4,1.3,0.8,2.7,1.2,4.2c0.4,1.5,0.9,3,1.3,4.6
		c0-2-0.1-4.1-0.2-6.4c-0.1-2.3-0.2-4.6-0.3-7c-0.1-2.4-0.2-4.8-0.3-7.2c-0.1-2.4-0.2-4.8-0.2-7h7.1c-0.1,2.9-0.2,5.9-0.3,9
		c-0.1,3.1-0.2,6.2-0.4,9.2c-0.2,3-0.3,6-0.5,9c-0.2,3-0.5,5.7-0.7,8.4h-5.9c-0.8-2.4-1.7-5-2.5-7.8c-0.8-2.8-1.7-5.4-2.5-8
		c-0.8,2.4-1.7,5-2.6,7.9c-0.9,2.8-1.8,5.5-2.5,7.9h-5.9c-0.3-2.6-0.6-5.5-0.8-8.4c-0.2-3-0.4-6-0.6-9c-0.2-3-0.3-6.1-0.4-9.2
		c-0.1-3.1-0.2-6.1-0.3-8.9h6.6c0,2.3-0.1,4.6-0.1,7c0,2.4-0.1,4.8-0.1,7.2c0,2.4-0.1,4.7-0.1,7c0,2.3-0.1,4.4-0.1,6.4
		c0.3-1.2,0.7-2.6,1.2-4c0.4-1.5,0.9-2.9,1.3-4.3c0.4-1.4,0.8-2.7,1.1-3.9c0.3-1.2,0.6-2.1,0.8-2.8H327.2z"/>
	<path class="st1" d="M355.1,1542.1c2.2,0,4.1,0.3,5.5,0.8c1.5,0.5,2.7,1.2,3.5,2.2s1.5,2.1,1.9,3.4c0.4,1.4,0.6,2.9,0.6,4.6v16.1
		c-1,0.2-2.6,0.5-4.6,0.8c-2,0.3-4.3,0.5-6.8,0.5c-1.7,0-3.3-0.2-4.7-0.5c-1.4-0.3-2.6-0.8-3.6-1.5c-1-0.7-1.8-1.6-2.3-2.8
		c-0.5-1.1-0.8-2.5-0.8-4.2c0-1.6,0.3-2.9,0.9-4c0.6-1.1,1.4-1.9,2.5-2.6s2.2-1.1,3.6-1.4c1.3-0.3,2.7-0.4,4.2-0.4
		c1.8,0,3.5,0.2,4.9,0.5v-0.9c0-1.3-0.4-2.5-1.3-3.4c-0.8-0.9-2.3-1.4-4.4-1.4c-1.3,0-2.6,0.1-3.9,0.3c-1.2,0.2-2.3,0.4-3,0.7
		l-1-5.7c0.9-0.3,2.1-0.6,3.7-0.8C351.7,1542.3,353.3,1542.1,355.1,1542.1z M355.7,1564.8c0.8,0,1.5,0,2.2,0c0.7,0,1.4-0.1,1.9-0.1
		v-6.2c-0.5-0.1-1-0.1-1.7-0.2c-0.7-0.1-1.2-0.1-1.8-0.1c-0.7,0-1.4,0-2.1,0.1c-0.7,0.1-1.3,0.3-1.8,0.5s-0.9,0.6-1.2,1
		c-0.3,0.4-0.5,1-0.5,1.7c0,1.2,0.5,2.1,1.4,2.6C353.1,1564.5,354.2,1564.8,355.7,1564.8z"/>
	<path class="st1" d="M383.1,1553.5c0.7-0.8,1.4-1.7,2.1-2.6c0.7-0.9,1.4-1.8,2.1-2.8c0.7-1,1.3-1.9,1.9-2.8
		c0.6-0.9,1.1-1.8,1.6-2.6h8.5c-0.7,0.9-1.5,1.8-2.4,2.9c-0.9,1-1.8,2.1-2.7,3.2c-0.9,1.1-1.9,2.1-2.8,3.1c-0.9,1-1.8,1.9-2.6,2.8
		c1,0.9,2,2,3.1,3.3c1.1,1.3,2.2,2.6,3.3,4s2.1,2.8,3,4.1c0.9,1.4,1.6,2.6,2.2,3.7h-8.1c-0.5-1-1.1-2-1.8-3.2
		c-0.7-1.2-1.5-2.4-2.4-3.6c-0.8-1.2-1.7-2.3-2.6-3.3c-0.9-1.1-1.7-1.9-2.4-2.6v12.8h-7.1v-38.7l7.1-1.2V1553.5z"/>
	<path class="st1" d="M417.2,1542.1c2.2,0,4.1,0.3,5.5,0.8c1.5,0.5,2.7,1.2,3.5,2.2s1.5,2.1,1.9,3.4c0.4,1.4,0.6,2.9,0.6,4.6v16.1
		c-1,0.2-2.6,0.5-4.6,0.8c-2,0.3-4.3,0.5-6.8,0.5c-1.7,0-3.3-0.2-4.7-0.5c-1.4-0.3-2.6-0.8-3.6-1.5c-1-0.7-1.8-1.6-2.3-2.8
		c-0.5-1.1-0.8-2.5-0.8-4.2c0-1.6,0.3-2.9,0.9-4c0.6-1.1,1.4-1.9,2.5-2.6c1-0.7,2.2-1.1,3.6-1.4c1.3-0.3,2.7-0.4,4.2-0.4
		c1.8,0,3.5,0.2,4.9,0.5v-0.9c0-1.3-0.4-2.5-1.3-3.4c-0.8-0.9-2.3-1.4-4.4-1.4c-1.3,0-2.6,0.1-3.9,0.3c-1.2,0.2-2.3,0.4-3,0.7
		l-1-5.7c0.9-0.3,2.1-0.6,3.7-0.8C413.8,1542.3,415.4,1542.1,417.2,1542.1z M417.8,1564.8c0.8,0,1.5,0,2.2,0c0.7,0,1.4-0.1,1.9-0.1
		v-6.2c-0.5-0.1-1-0.1-1.7-0.2c-0.7-0.1-1.2-0.1-1.8-0.1c-0.7,0-1.4,0-2.1,0.1c-0.7,0.1-1.3,0.3-1.8,0.5s-0.9,0.6-1.2,1
		c-0.3,0.4-0.5,1-0.5,1.7c0,1.2,0.5,2.1,1.4,2.6C415.1,1564.5,416.3,1564.8,417.8,1564.8z"/>
	<path class="st1" d="M454.1,1542.5c1.5,0,2.7,0.2,3.7,0.7c1,0.5,1.7,1.1,2.3,2.1c0.6,0.9,0.9,2.1,1.1,3.5c0.2,1.4,0.3,3,0.3,4.9
		v16.2h-5.7v-16.5c0-1.1-0.1-1.9-0.2-2.6c-0.1-0.7-0.3-1.1-0.5-1.5c-0.2-0.3-0.5-0.6-0.7-0.7c-0.3-0.1-0.6-0.2-0.9-0.2
		c-0.3,0-0.7,0-1.1,0.1c-0.4,0.1-0.7,0.2-1,0.3c0.1,0.7,0.2,1.5,0.3,2.4c0.1,0.9,0.1,1.9,0.1,2.9v5.4h-5.7v-6.2
		c0-1.8-0.2-3.1-0.5-3.9c-0.4-0.7-0.9-1.1-1.8-1.1c-0.2,0-0.5,0-0.8,0.1c-0.3,0-0.6,0.1-0.9,0.2v21.2h-5.7v-26c1.5-0.4,3-0.7,4.4-1
		c1.5-0.2,2.7-0.3,3.9-0.3c1,0,1.9,0.1,2.7,0.4c0.8,0.3,1.5,0.7,2,1.2c0.7-0.4,1.4-0.8,2.3-1.1
		C452.2,1542.7,453.2,1542.5,454.1,1542.5z"/>
	<path class="st1" d="M479.2,1542.1c2.2,0,4.1,0.3,5.5,0.8c1.5,0.5,2.7,1.2,3.5,2.2s1.5,2.1,1.9,3.4c0.4,1.4,0.6,2.9,0.6,4.6v16.1
		c-1,0.2-2.6,0.5-4.6,0.8c-2,0.3-4.3,0.5-6.8,0.5c-1.7,0-3.3-0.2-4.7-0.5c-1.4-0.3-2.6-0.8-3.6-1.5c-1-0.7-1.8-1.6-2.3-2.8
		c-0.5-1.1-0.8-2.5-0.8-4.2c0-1.6,0.3-2.9,0.9-4c0.6-1.1,1.4-1.9,2.5-2.6c1-0.7,2.2-1.1,3.6-1.4c1.3-0.3,2.7-0.4,4.2-0.4
		c1.8,0,3.5,0.2,4.9,0.5v-0.9c0-1.3-0.4-2.5-1.3-3.4c-0.8-0.9-2.3-1.4-4.4-1.4c-1.3,0-2.6,0.1-3.9,0.3c-1.2,0.2-2.3,0.4-3,0.7
		l-1-5.7c0.9-0.3,2.1-0.6,3.7-0.8C475.9,1542.3,477.5,1542.1,479.2,1542.1z M479.9,1564.8c0.8,0,1.5,0,2.2,0c0.7,0,1.4-0.1,1.9-0.1
		v-6.2c-0.5-0.1-1-0.1-1.7-0.2c-0.7-0.1-1.2-0.1-1.8-0.1c-0.7,0-1.4,0-2.1,0.1c-0.7,0.1-1.3,0.3-1.8,0.5c-0.5,0.2-0.9,0.6-1.2,1
		c-0.3,0.4-0.5,1-0.5,1.7c0,1.2,0.5,2.1,1.4,2.6C477.2,1564.5,478.4,1564.8,479.9,1564.8z"/>
	<path class="st1" d="M504.7,1548.7h-6.2v-5.9h6.2v-6.8l7.1-1.2v7.9h11.3v5.9h-11.3v10.9c0,1,0.1,1.8,0.3,2.4
		c0.2,0.6,0.5,1.1,0.8,1.4c0.3,0.3,0.8,0.6,1.3,0.7c0.5,0.1,1.1,0.2,1.7,0.2c0.7,0,1.3,0,1.8-0.1c0.6,0,1.1-0.1,1.6-0.2
		c0.5-0.1,1.1-0.2,1.6-0.4c0.6-0.2,1.2-0.4,1.8-0.7l1,6.1c-1.3,0.5-2.7,0.9-4.2,1.1c-1.5,0.2-3,0.3-4.4,0.3c-1.6,0-3.1-0.1-4.4-0.4
		c-1.3-0.3-2.3-0.8-3.2-1.6c-0.9-0.8-1.6-1.8-2-3.2c-0.5-1.4-0.7-3.2-0.7-5.5V1548.7z"/>
	<path class="st1" d="M540.6,1564.5c1.7,0,3-0.1,4-0.4c0.9-0.2,1.4-0.8,1.4-1.5c0-0.5-0.1-0.9-0.4-1.3c-0.3-0.3-0.7-0.6-1.2-0.9
		c-0.5-0.2-1.1-0.5-1.8-0.7c-0.7-0.2-1.4-0.5-2.1-0.7c-1-0.3-2.1-0.7-3.2-1.1c-1.1-0.4-2.1-0.9-2.9-1.5c-0.9-0.6-1.6-1.4-2.2-2.3
		c-0.6-0.9-0.9-2.1-0.9-3.5c0-1.1,0.2-2.2,0.7-3.2c0.4-1,1.1-1.9,2.1-2.7c0.9-0.8,2.1-1.4,3.6-1.8c1.5-0.4,3.2-0.7,5.2-0.7
		c1.8,0,3.4,0.1,4.9,0.4c1.5,0.3,2.8,0.7,3.9,1.2l-1.1,6c-0.7-0.2-1.7-0.5-3-0.9c-1.4-0.4-2.9-0.7-4.7-0.7c-1.8,0-3,0.2-3.7,0.7
		c-0.6,0.4-0.9,0.9-0.9,1.4c0,0.4,0.1,0.8,0.4,1.1c0.3,0.3,0.7,0.6,1.1,0.9c0.5,0.3,1,0.5,1.7,0.8c0.6,0.2,1.3,0.5,2,0.7
		c1,0.3,2.1,0.7,3.2,1.2c1.1,0.4,2.1,0.9,3,1.6c0.9,0.6,1.6,1.4,2.2,2.4c0.6,1,0.9,2.2,0.9,3.6c0,1.1-0.2,2.2-0.6,3.2
		c-0.4,1-1.1,1.9-2.1,2.6c-1,0.7-2.3,1.3-3.8,1.7c-1.6,0.4-3.5,0.6-5.8,0.6c-2.3,0-4.3-0.3-6-0.8c-1.6-0.5-3-1-4-1.4l1.1-5.9
		c1.3,0.5,2.8,1,4.3,1.5C537.5,1564.3,539.1,1564.5,540.6,1564.5z"/>
	<path class="st1" d="M583.8,1568.9c-1.3,0.3-2.9,0.7-4.7,1c-1.9,0.3-3.9,0.5-6.1,0.5c-2.2,0-4-0.3-5.5-0.9
		c-1.4-0.6-2.5-1.5-3.4-2.6c-0.8-1.1-1.4-2.5-1.7-4c-0.3-1.5-0.5-3.2-0.5-5.1v-15.1h7.1v14.1c0,2.5,0.3,4.3,0.9,5.5
		c0.6,1.2,1.8,1.8,3.5,1.8c1.1,0,2.1-0.1,3.2-0.3v-21.2h7.1V1568.9z"/>
	<path class="st1" d="M596.9,1574c0.7-0.2,1.4-0.3,2.1-0.4c0.7-0.1,1.4-0.3,2-0.5c0.6-0.2,1.2-0.6,1.7-1c0.5-0.4,0.9-1,1.2-1.7
		c-1.5-0.2-2.6-0.7-3.4-1.7c-0.8-1-1.2-2.1-1.2-3.3c0-1.5,0.5-2.7,1.5-3.7c1-1,2.2-1.4,3.7-1.4c1.6,0,2.9,0.5,3.8,1.6
		c0.9,1.1,1.4,2.5,1.4,4.4c0,1.3-0.2,2.7-0.6,4c-0.4,1.3-1.1,2.6-2,3.7c-0.9,1.2-2.2,2.1-3.7,3c-1.5,0.8-3.3,1.4-5.5,1.7L596.9,1574
		z"/>
	<path class="st1" d="M657.3,1557.9c0,1.7-0.2,3.4-0.7,4.9c-0.4,1.5-1.2,2.9-2.2,4c-1,1.2-2.3,2.1-3.9,2.7c-1.6,0.7-3.6,1-5.9,1
		c-2.4,0-4.4-0.3-6-0.9c-1.6-0.6-3-1.4-4.1-2.2l2.7-5.6c1,0.6,2,1.2,3.2,1.8c1.2,0.6,2.4,0.9,3.6,0.9c1.8,0,3.3-0.5,4.5-1.5
		c1.1-1,1.7-2.8,1.7-5.4v-17.4h-11.9v-5.9h19V1557.9z"/>
	<path class="st1" d="M677,1542.1c2.2,0,4.1,0.3,5.5,0.8c1.5,0.5,2.7,1.2,3.5,2.2c0.9,0.9,1.5,2.1,1.9,3.4c0.4,1.4,0.6,2.9,0.6,4.6
		v16.1c-1,0.2-2.6,0.5-4.6,0.8c-2,0.3-4.3,0.5-6.8,0.5c-1.7,0-3.3-0.2-4.7-0.5c-1.4-0.3-2.6-0.8-3.6-1.5c-1-0.7-1.8-1.6-2.3-2.8
		c-0.5-1.1-0.8-2.5-0.8-4.2c0-1.6,0.3-2.9,0.9-4c0.6-1.1,1.4-1.9,2.5-2.6s2.2-1.1,3.6-1.4c1.3-0.3,2.7-0.4,4.2-0.4
		c1.8,0,3.5,0.2,4.9,0.5v-0.9c0-1.3-0.4-2.5-1.3-3.4c-0.8-0.9-2.3-1.4-4.4-1.4c-1.3,0-2.6,0.1-3.9,0.3c-1.2,0.2-2.3,0.4-3,0.7
		l-1-5.7c0.9-0.3,2.1-0.6,3.7-0.8C673.6,1542.3,675.3,1542.1,677,1542.1z M677.6,1564.8c0.8,0,1.5,0,2.2,0c0.7,0,1.4-0.1,1.9-0.1
		v-6.2c-0.5-0.1-1-0.1-1.7-0.2c-0.7-0.1-1.2-0.1-1.8-0.1c-0.7,0-1.4,0-2.1,0.1c-0.7,0.1-1.3,0.3-1.8,0.5c-0.5,0.2-0.9,0.6-1.2,1
		s-0.5,1-0.5,1.7c0,1.2,0.5,2.1,1.4,2.6C675,1564.5,676.2,1564.8,677.6,1564.8z"/>
	<path class="st1" d="M721.2,1556.3c0,2.1-0.2,4-0.7,5.7c-0.5,1.7-1.1,3.2-2,4.5c-0.9,1.2-2,2.2-3.3,2.9c-1.3,0.7-2.9,1-4.7,1
		c-1.8,0-3.7-0.4-5.6-1.3v10.2h-7.1v-35.6c1.3-0.4,2.9-0.8,4.8-1c1.9-0.3,3.8-0.4,5.6-0.4c4.2,0,7.4,1.3,9.6,3.8
		C720.1,1548.6,721.2,1552,721.2,1556.3z M714,1556.6c0-2.4-0.5-4.4-1.4-5.9c-1-1.6-2.4-2.3-4.4-2.3c-0.5,0-1.1,0-1.7,0.1
		c-0.6,0.1-1.1,0.1-1.6,0.1v14.8c0.5,0.3,1.1,0.6,1.8,0.7c0.8,0.2,1.5,0.3,2.3,0.3c1.7,0,2.9-0.7,3.7-2
		C713.6,1561,714,1559.1,714,1556.6z"/>
	<path class="st1" d="M739.1,1542.1c2.2,0,4.1,0.3,5.5,0.8c1.5,0.5,2.7,1.2,3.5,2.2c0.9,0.9,1.5,2.1,1.9,3.4
		c0.4,1.4,0.6,2.9,0.6,4.6v16.1c-1,0.2-2.6,0.5-4.6,0.8c-2,0.3-4.3,0.5-6.8,0.5c-1.7,0-3.3-0.2-4.7-0.5c-1.4-0.3-2.6-0.8-3.6-1.5
		c-1-0.7-1.8-1.6-2.3-2.8c-0.5-1.1-0.8-2.5-0.8-4.2c0-1.6,0.3-2.9,0.9-4c0.6-1.1,1.4-1.9,2.5-2.6s2.2-1.1,3.6-1.4
		c1.3-0.3,2.7-0.4,4.2-0.4c1.8,0,3.5,0.2,4.9,0.5v-0.9c0-1.3-0.4-2.5-1.3-3.4c-0.8-0.9-2.3-1.4-4.4-1.4c-1.3,0-2.6,0.1-3.9,0.3
		c-1.2,0.2-2.3,0.4-3,0.7l-1-5.7c0.9-0.3,2.1-0.6,3.7-0.8C735.7,1542.3,737.4,1542.1,739.1,1542.1z M739.7,1564.8c0.8,0,1.5,0,2.2,0
		c0.7,0,1.4-0.1,1.9-0.1v-6.2c-0.5-0.1-1-0.1-1.7-0.2c-0.7-0.1-1.2-0.1-1.8-0.1c-0.7,0-1.4,0-2.1,0.1c-0.7,0.1-1.3,0.3-1.8,0.5
		c-0.5,0.2-0.9,0.6-1.2,1c-0.3,0.4-0.5,1-0.5,1.7c0,1.2,0.5,2.1,1.4,2.6C737.1,1564.5,738.3,1564.8,739.7,1564.8z"/>
	<path class="st1" d="M760,1543.7c1.3-0.3,2.8-0.7,4.7-1c1.9-0.3,3.9-0.5,6.1-0.5c2.1,0,3.9,0.3,5.3,0.9c1.4,0.6,2.5,1.4,3.4,2.5
		c0.8,1.1,1.4,2.4,1.8,3.9c0.3,1.5,0.5,3.2,0.5,5v15.2h-7.1v-14.3c0-2.5-0.3-4.3-0.9-5.5c-0.6-1.1-1.7-1.7-3.5-1.7
		c-0.5,0-1.1,0-1.6,0.1c-0.5,0-1.1,0.1-1.6,0.2v21.2H760V1543.7z"/>
	<path class="st1" d="M825,1543.6c0,1.2-0.2,2.4-0.7,3.5s-1.1,2.2-1.8,3.3s-1.6,2.1-2.6,3.1c-1,1-1.9,2-2.9,2.9
		c-0.5,0.5-1.1,1-1.7,1.6c-0.7,0.6-1.3,1.3-1.8,2c-0.6,0.7-1.1,1.4-1.5,2c-0.4,0.7-0.6,1.3-0.6,1.9h15.3v5.9h-23.2
		c-0.1-0.4-0.2-0.9-0.1-1.4c0-0.6,0-1,0-1.2c0-1.9,0.4-3.7,1.1-5.3c0.7-1.6,1.6-3.1,2.7-4.5c1.1-1.4,2.3-2.6,3.5-3.8
		c1.2-1.2,2.4-2.3,3.5-3.4c1.1-1.1,2-2.1,2.7-3.1c0.7-1,1.1-2,1.1-3c0-1.5-0.4-2.6-1.3-3.4c-0.9-0.8-2-1.2-3.3-1.2
		c-1.1,0-2.3,0.3-3.5,0.8c-1.2,0.5-2.4,1.4-3.6,2.7l-3.5-4.9c1.5-1.6,3.3-2.8,5.3-3.6c2-0.8,4-1.2,6-1.2c1.5,0,2.9,0.2,4.2,0.6
		c1.3,0.4,2.5,1.1,3.6,1.9c1,0.8,1.9,1.9,2.5,3.2C824.7,1540.5,825,1541.9,825,1543.6z"/>
	<path class="st1" d="M857.8,1552c0,6.3-1.1,11-3.2,14c-2.1,3.1-5.2,4.6-9.2,4.6c-4,0-7.1-1.5-9.2-4.6c-2.1-3.1-3.2-7.7-3.2-14
		c0-6.2,1.1-10.8,3.2-13.9c2.1-3.1,5.2-4.6,9.1-4.6c4,0,7.1,1.5,9.2,4.6C856.7,1541.1,857.8,1545.7,857.8,1552z M851.4,1552
		c0-4.1-0.5-7.2-1.5-9.3c-1-2.1-2.5-3.2-4.5-3.2c-1.9,0-3.4,1.1-4.4,3.2s-1.6,5.2-1.6,9.3c0,4.1,0.5,7.2,1.6,9.3
		c1,2.1,2.5,3.2,4.4,3.2c2,0,3.4-1.1,4.5-3.2C850.9,1559.2,851.4,1556.1,851.4,1552z M848.7,1551.4c0,1-0.3,1.9-0.9,2.7
		c-0.6,0.7-1.4,1.1-2.3,1.1c-1,0-1.8-0.4-2.4-1.1c-0.6-0.7-0.9-1.6-0.9-2.7c0-1,0.3-1.9,0.9-2.7c0.6-0.8,1.4-1.1,2.4-1.1
		c0.9,0,1.7,0.4,2.3,1.1C848.4,1549.5,848.7,1550.4,848.7,1551.4z"/>
	<path class="st1" d="M874.4,1564v-19.9c-1.1,0.8-2.3,1.4-3.7,2c-1.4,0.6-2.5,1.1-3.5,1.4l-2.3-5.9c0.9-0.3,1.9-0.8,3-1.3
		c1.1-0.5,2.1-1.1,3.2-1.8c1.1-0.7,2.1-1.3,3-2.1c1-0.7,1.8-1.5,2.5-2.2h4.8v29.7h7.1v5.9h-21.6v-5.9H874.4z"/>
	<path class="st1" d="M900.7,1569.8c0.1-2.5,0.5-5,1.2-7.8c0.7-2.7,1.5-5.5,2.5-8.1c1-2.7,2-5.2,3.2-7.6c1.2-2.4,2.2-4.5,3.3-6.2
		H896v-5.9h23.2v5.3c-1,1.2-2.2,2.9-3.4,5c-1.2,2.1-2.4,4.6-3.5,7.3c-1.1,2.7-2.1,5.6-2.9,8.7c-0.8,3.1-1.3,6.2-1.5,9.2H900.7z"/>
</g>
</svg>
